####
#
# OBJ File Generated by Meshlab
#
####
# Object muffin_60.obj
#
# Vertices: 32
# Faces: 60
#
####
mtllib ./muffin_60.obj.mtl

vn -0.470312 0.881601 -0.039835
v -2.307391 13.768094 0.772637 0.537255 0.356863 0.301961
vn -0.714698 0.586401 -0.381237
v -5.585276 11.677109 -3.580263 0.231373 0.109804 0.109804
vn -0.216414 0.916490 -0.336468
v -0.774352 12.950264 -2.324578 0.419608 0.321569 0.321569
vn -0.061403 0.537215 -0.841207
v -0.574814 11.081618 -6.931141 0.603922 0.419608 0.376471
vn 0.410152 0.587949 -0.697202
v 3.012978 11.270304 -5.912795 0.631373 0.439216 0.392157
vn 0.859628 0.458950 -0.224511
v 6.608174 11.070545 -1.421130 0.537255 0.329412 0.274510
vn 0.802694 -0.131407 -0.581734
v 5.723881 7.055175 -4.265658 0.458824 0.247059 0.184314
vn 0.996112 -0.074478 0.047046
v 7.261504 6.950427 0.214807 0.466667 0.227451 0.156863
vn -0.822858 0.568136 -0.011222
v -6.229900 11.676452 0.175421 0.549020 0.337255 0.286275
vn -0.453774 0.641917 0.618087
v -3.846692 11.079708 4.728879 0.482353 0.321569 0.309804
vn -0.499853 0.634844 0.589168
v -1.714472 10.930817 4.449254 0.611765 0.447059 0.349020
vn -0.551742 0.562470 0.615798
v -2.485314 10.374031 5.618564 0.521569 0.309804 0.282353
vn -0.573494 0.818603 0.031525
v -3.920092 11.733238 -0.473137 0.439216 0.286275 0.266667
vn 0.784592 -0.620002 -0.003604
v 5.209061 1.608121 -0.192518 0.501961 0.258824 0.184314
vn -0.720362 -0.034402 0.692744
v -4.499507 7.388944 4.693530 0.584314 0.356863 0.286275
vn -0.606363 -0.626285 0.489991
v -3.766688 1.418753 2.227295 0.509804 0.258824 0.184314
vn -0.982473 -0.009333 -0.186173
v -6.766857 7.513833 -1.143097 0.447059 0.239216 0.156863
vn -0.379533 -0.305411 0.873315
v -2.538663 7.207971 5.996822 0.447059 0.200000 0.109804
vn 0.130373 -0.820995 0.555851
v 2.104777 1.347451 4.234951 0.474510 0.258824 0.184314
vn -0.889303 -0.347045 0.297827
v -5.969953 6.964095 1.598208 0.321569 0.129412 0.094118
vn -0.540390 -0.837294 -0.083164
v -4.272895 1.336627 -1.091443 0.564706 0.337255 0.247059
vn -0.815346 -0.338913 -0.469413
v -5.495183 7.017980 -4.247565 0.521569 0.282353 0.219608
vn 0.127277 -0.236768 0.963193
v 1.353907 6.792336 6.386245 0.600000 0.384314 0.309804
vn -0.409251 0.695527 0.590555
v -1.504906 12.512292 4.407469 0.549020 0.403922 0.376471
vn -0.270863 -0.597315 -0.754883
v -1.380334 1.272382 -4.976432 0.486275 0.227451 0.149020
vn -0.359885 -0.068018 -0.930514
v -2.349684 7.292616 -7.039313 0.458824 0.247059 0.176471
vn 0.305816 -0.133921 -0.942625
v 2.743998 7.232774 -6.622841 0.764706 0.647059 0.592157
vn 0.182476 0.980710 -0.070080
v 2.424347 14.359821 -0.658116 0.682353 0.529412 0.447059
vn -0.002304 0.318078 0.948062
v 1.975314 10.626330 6.770995 0.619608 0.431373 0.364706
vn 0.661661 0.574184 0.482202
v 5.294160 11.214546 4.759305 0.549020 0.411765 0.384314
vn 0.689626 -0.212019 0.692434
v 5.655860 7.226743 4.750935 0.556863 0.356863 0.309804
vn 0.310782 -0.842123 -0.440730
v 1.961463 1.338299 -4.546153 0.403922 0.164706 0.101961
# 32 vertices, 0 vertices normals


usemtl material_0
vt 0.688637 0.659215
vt 0.686236 0.807718
vt 0.798257 0.705597
f 17/1/17 20/2/20 9/3/9
vt 0.791997 0.581466
vt 0.673261 0.566432
f 2/4/2 22/5/22 17/1/17
vt 0.770702 0.612348
vt 0.744213 0.647654
vt 0.774565 0.635929
f 2/6/2 17/7/17 13/8/13
vt 0.867085 0.035436
vt 0.889980 0.066650
vt 0.896278 0.014296
f 13/9/13 17/10/17 9/11/9
vt 0.749143 0.523561
f 26/12/26 22/5/22 2/4/2
vt 0.630853 0.743646
vt 0.608464 0.791641
vt 0.654841 0.786187
f 3/13/3 13/14/13 1/15/1
vt 0.620317 0.887747
f 1/15/1 13/14/13 24/16/24
vt 0.535310 0.078417
vt 0.548348 0.182123
vt 0.558653 0.190638
f 2/17/2 13/18/13 3/19/3
vt 0.194263 0.593649
vt 0.248603 0.686321
vt 0.287214 0.552815
f 4/20/4 26/21/26 2/22/2
vt 0.721839 0.206526
vt 0.596337 0.254714
vt 0.607132 0.355707
f 28/23/28 1/24/1 24/25/24
vt 0.643931 0.016472
vt 0.652338 0.107904
f 4/26/4 2/17/2 3/27/3
vt 0.723704 0.197207
vt 0.635530 0.194530
f 28/28/28 3/29/3 1/24/1
vt 0.090867 0.680804
f 4/20/4 27/30/27 26/21/26
vt 0.682031 0.132420
vt 0.728068 0.146315
f 3/31/3 28/28/28 5/32/5
vt 0.723708 0.049886
f 5/33/5 4/26/4 3/27/3
vt 0.785319 0.343698
vt 0.799463 0.236981
vt 0.767241 0.217226
f 30/34/30 6/35/6 28/36/28
vt 0.771420 0.176302
f 5/32/5 28/28/28 6/37/6
vt 0.076371 0.582940
f 5/38/5 27/30/27 4/20/4
vt 0.014991 0.683160
f 5/38/5 7/39/7 27/30/27
vt 0.899662 0.605603
vt 0.985385 0.479845
vt 0.863451 0.409074
f 30/40/30 8/41/8 6/42/6
vt 0.978294 0.599046
f 31/43/31 8/41/8 30/40/30
vt 0.859789 0.314459
vt 0.979048 0.331051
f 5/44/5 6/42/6 7/45/7
f 6/42/6 8/41/8 7/45/7
vt 0.022499 0.800369
vt 0.078746 0.885251
vt 0.074009 0.720050
f 7/46/7 32/47/32 27/48/27
vt 0.297445 0.876545
vt 0.316648 0.984528
vt 0.442590 0.864200
f 8/49/8 31/50/31 14/51/14
vt 0.325698 0.748657
f 7/52/7 8/49/8 14/51/14
vt 0.342547 0.436536
vt 0.336398 0.513735
vt 0.378364 0.454834
f 10/53/10 15/54/15 11/55/11
vt 0.932877 0.035075
vt 0.938378 0.020679
vt 0.923303 0.034994
f 12/56/12 15/57/15 18/58/18
vt 0.487680 0.549622
vt 0.514090 0.437361
vt 0.395348 0.534638
f 23/59/23 29/60/29 18/61/18
vt 0.017324 0.919547
vt 0.095796 0.926347
vt 0.028157 0.892328
f 12/62/12 29/63/29 11/64/11
vt 0.505040 0.441515
vt 0.395357 0.455938
f 29/65/29 12/66/12 18/61/18
vt 0.462140 0.245395
vt 0.517246 0.358057
vt 0.520316 0.224045
f 9/67/9 10/68/10 13/69/13
vt 0.594240 0.868359
vt 0.584105 0.909226
f 13/70/13 11/71/11 24/16/24
vt 0.778690 0.840954
f 10/72/10 9/3/9 20/2/20
vt 0.459644 0.384965
vt 0.426025 0.417875
f 24/73/24 11/74/11 29/60/29
vt 0.960923 0.028395
vt 0.964252 0.011120
vt 0.946033 0.015912
f 12/75/12 11/76/11 15/77/15
vt 0.567026 0.359883
vt 0.557681 0.314808
f 11/78/11 13/79/13 10/68/10
vt 0.724765 0.845787
f 20/2/20 15/80/15 10/72/10
vt 0.617197 0.535140
f 29/60/29 23/59/23 31/81/31
vt 0.589350 0.574555
vt 0.418260 0.601890
vt 0.536098 0.729695
f 23/82/23 18/83/18 19/84/19
vt 0.062534 0.004469
vt 0.060246 0.009974
vt 0.070064 0.005154
f 14/85/14 31/86/31 19/87/19
vt 0.642049 0.589466
f 19/84/19 31/88/31 23/82/23
vt 0.397490 0.120171
vt 0.418829 0.259991
vt 0.437125 0.188005
f 22/89/22 20/90/20 17/91/17
vt 0.981903 0.842169
vt 0.816589 0.894171
vt 0.962605 0.926256
f 20/92/20 16/93/16 18/94/18
vt 0.376306 0.380613
vt 0.310132 0.415085
f 15/95/15 20/90/20 18/96/18
vt 0.815021 0.794517
f 21/97/21 16/93/16 20/92/20
vt 0.957672 0.704740
f 22/98/22 21/97/21 20/92/20
vt 0.268177 0.796824
vt 0.206066 0.713985
vt 0.204148 0.883812
f 22/99/22 26/100/26 25/101/25
vt 0.815110 0.709806
vt 0.814794 0.737969
f 25/102/25 21/103/21 22/98/22
f 26/100/26 27/48/27 25/101/25
f 25/101/25 27/48/27 32/47/32
vt 0.752726 0.393759
f 24/25/24 30/104/30 28/23/28
vt 0.716223 0.404735
f 30/104/30 24/25/24 29/105/29
vt 0.922673 0.659265
vt 0.887956 0.634147
vt 0.915882 0.668792
f 31/106/31 30/107/30 29/108/29
vt 0.540245 0.002582
vt 0.548401 0.001355
vt 0.536133 0.002492
f 18/109/18 16/110/16 19/111/19
vt 0.042975 0.884365
f 7/46/7 14/112/14 32/47/32
vt 0.385621 0.058847
vt 0.384671 0.058903
vt 0.386489 0.059962
f 25/113/25 32/114/32 21/115/21
vt 0.386307 0.060915
vt 0.384650 0.061424
f 16/116/16 21/115/21 19/117/19
vt 0.383834 0.059909
f 14/118/14 19/117/19 32/114/32
f 19/117/19 21/115/21 32/114/32
# 60 faces, 118 coords texture

# End of File
