####
#
# OBJ File Generated by Meshlab
#
####
# Object muffin_32.obj
#
# Vertices: 18
# Faces: 32
#
####
mtllib ./muffin_32.obj.mtl

vn -0.675886 0.683635 -0.275357
v -5.585276 11.677109 -3.580263 0.231373 0.109804 0.109804
vn 0.961072 0.274803 -0.028708
v 7.303340 9.402208 -0.639430 0.466667 0.227451 0.156863
vn -0.601731 0.493022 0.628370
v -2.435033 10.832671 4.762269 0.521569 0.309804 0.282353
vn -0.596804 0.788434 0.148985
v -3.920092 11.733238 -0.473137 0.439216 0.286275 0.266667
vn 0.811735 -0.573334 -0.111236
v 5.209061 1.608121 -0.192518 0.501961 0.258824 0.184314
vn -0.897727 0.386855 0.210782
v -6.466896 9.983788 -0.473168 0.447059 0.239216 0.156863
vn -0.389952 -0.149518 0.908616
v -2.538663 7.207971 5.996822 0.447059 0.200000 0.109804
vn 0.176722 -0.738686 0.650471
v 2.104777 1.347451 4.234951 0.474510 0.258824 0.184314
vn -0.876240 -0.074070 0.476148
v -4.963786 6.797411 4.012528 0.321569 0.129412 0.094118
vn -0.663998 -0.694118 0.278041
v -4.420574 1.210829 0.761519 0.564706 0.337255 0.247059
vn -0.877342 -0.222911 -0.424950
v -5.495183 7.017980 -4.247565 0.521569 0.282353 0.219608
vn -0.427055 0.848242 0.313225
v -2.420850 13.582503 2.159619 0.549020 0.403922 0.376471
vn -0.211673 0.325619 -0.921502
v -1.629052 10.092080 -7.164256 0.458824 0.247059 0.176471
vn 0.630580 0.174540 -0.756243
v 4.254225 9.929407 -5.886883 0.764706 0.647059 0.592157
vn 0.123393 0.973412 -0.192985
v 2.015577 14.225769 -1.169695 0.682353 0.529412 0.447059
vn 0.314625 0.448193 0.836740
v 4.039063 10.913440 6.606281 0.549020 0.411765 0.384314
vn 0.815308 -0.223164 0.534295
v 5.655860 7.226743 4.750935 0.556863 0.356863 0.309804
vn -0.029117 -0.749497 -0.661368
v 0.135907 1.054380 -5.423700 0.403922 0.164706 0.101961
# 18 vertices, 0 vertices normals


usemtl material_0
vt 0.791997 0.581466
vt 0.673261 0.566432
vt 0.743194 0.680894
f 1/1/1 11/2/11 6/3/6
vt 0.770702 0.612348
vt 0.744213 0.647654
vt 0.774565 0.635929
f 1/4/1 6/5/6 4/6/4
vt 0.749143 0.523561
f 13/7/13 11/2/11 1/1/1
vt 0.630853 0.743646
vt 0.608464 0.791641
vt 0.638194 0.841464
f 15/8/15 4/9/4 12/10/12
vt 0.535310 0.078417
vt 0.548348 0.182123
vt 0.558653 0.190638
f 1/11/1 4/12/4 15/13/15
vt 0.643931 0.016472
vt 0.652338 0.107904
f 13/14/13 1/11/1 15/15/15
vt 0.723708 0.049886
f 14/16/14 13/14/13 15/15/15
vt 0.785319 0.343698
vt 0.799463 0.236981
vt 0.767241 0.217226
f 16/17/16 2/18/2 15/19/15
vt 0.728068 0.146315
vt 0.711804 0.179576
vt 0.771420 0.176302
f 14/20/14 15/21/15 2/22/2
vt 0.978294 0.599046
vt 0.932294 0.449434
vt 0.899662 0.605603
f 17/23/17 2/24/2 16/25/16
vt 0.297445 0.876545
vt 0.316648 0.984528
vt 0.442590 0.864200
f 2/26/2 17/27/17 5/28/5
vt 0.325698 0.748657
f 14/29/14 2/26/2 5/28/5
vt 0.932877 0.035075
vt 0.938378 0.020679
vt 0.923303 0.034994
f 3/30/3 9/31/9 7/32/7
vt 0.505040 0.441515
vt 0.395357 0.455938
vt 0.395348 0.534638
f 16/33/16 3/34/3 7/35/7
vt 0.462140 0.245395
vt 0.543981 0.358444
vt 0.520316 0.224045
f 6/36/6 3/37/3 4/38/4
vt 0.594240 0.868359
vt 0.584105 0.909226
f 4/39/4 3/40/3 12/10/12
vt 0.778690 0.840954
vt 0.697256 0.838289
f 3/41/3 6/3/6 9/42/9
vt 0.459644 0.384965
vt 0.426025 0.417875
vt 0.506783 0.465355
f 12/43/12 3/44/3 16/45/16
vt 0.589350 0.574555
vt 0.418260 0.601890
vt 0.536098 0.729695
f 16/46/16 7/47/7 8/48/8
vt 0.062534 0.004469
vt 0.060246 0.009974
vt 0.070064 0.005154
f 5/49/5 17/50/17 8/51/8
vt 0.642049 0.589466
f 8/48/8 17/52/17 16/46/16
vt 0.397490 0.120171
vt 0.400563 0.311639
vt 0.437125 0.188005
f 11/53/11 9/54/9 6/55/6
vt 0.981903 0.842169
vt 0.815974 0.838456
vt 0.962605 0.926256
f 9/56/9 10/57/10 7/58/7
vt 0.957672 0.704740
f 11/59/11 10/57/10 9/56/9
vt 0.268177 0.796824
vt 0.206066 0.713985
vt 0.136708 0.881952
f 11/60/11 13/61/13 18/62/18
vt 0.815110 0.709806
vt 0.814794 0.737969
f 18/63/18 10/64/10 11/59/11
vt 0.040583 0.760352
f 13/61/13 14/65/14 18/62/18
vt 0.594007 0.309557
vt 0.734384 0.409196
vt 0.721839 0.206526
f 12/66/12 16/67/16 15/68/15
vt 0.540245 0.002582
vt 0.548401 0.001355
vt 0.536133 0.002492
f 7/69/7 10/70/10 8/71/8
vt 0.042975 0.884365
f 14/65/14 5/72/5 18/62/18
vt 0.383834 0.059909
vt 0.384650 0.061424
vt 0.385167 0.058767
f 5/73/5 8/74/8 18/75/18
vt 0.386482 0.060473
f 8/74/8 10/76/10 18/75/18
# 32 faces, 76 coords texture

# End of File
