####
#
# OBJ File Generated by Meshlab
#
####
# Object muffin_50.obj
#
# Vertices: 27
# Faces: 50
#
####
mtllib ./muffin_50.obj.mtl

vn -0.470312 0.881601 -0.039835
v -2.307391 13.768094 0.772637 0.537255 0.356863 0.301961
vn -0.719896 0.632899 -0.284938
v -5.585276 11.677109 -3.580263 0.231373 0.109804 0.109804
vn -0.233536 0.896074 -0.377509
v -0.774352 12.950264 -2.324578 0.419608 0.321569 0.321569
vn 0.414429 0.574288 -0.706004
v 3.012978 11.270304 -5.912795 0.631373 0.439216 0.392157
vn 0.768503 -0.160887 -0.619288
v 5.723881 7.055175 -4.265658 0.458824 0.247059 0.184314
vn 0.965332 0.239044 -0.104841
v 7.303340 9.402208 -0.639430 0.466667 0.227451 0.156863
vn -0.822858 0.568136 -0.011222
v -6.229900 11.676452 0.175421 0.549020 0.337255 0.286275
vn -0.453774 0.641917 0.618087
v -3.846692 11.079708 4.728879 0.482353 0.321569 0.309804
vn -0.498660 0.635013 0.589997
v -1.714472 10.930817 4.449254 0.611765 0.447059 0.349020
vn -0.549479 0.561195 0.618977
v -2.485314 10.374031 5.618564 0.521569 0.309804 0.282353
vn -0.573494 0.818603 0.031525
v -3.920092 11.733238 -0.473137 0.439216 0.286275 0.266667
vn 0.804345 -0.593367 -0.030721
v 5.209061 1.608121 -0.192518 0.501961 0.258824 0.184314
vn -0.720362 -0.034402 0.692744
v -4.499507 7.388944 4.693530 0.584314 0.356863 0.286275
vn -0.982473 -0.009333 -0.186173
v -6.766857 7.513833 -1.143097 0.447059 0.239216 0.156863
vn -0.422700 -0.348639 0.836526
v -2.538663 7.207971 5.996822 0.447059 0.200000 0.109804
vn 0.156957 -0.738783 0.655411
v 2.104777 1.347451 4.234951 0.474510 0.258824 0.184314
vn -0.878443 -0.354072 0.320891
v -5.969953 6.964095 1.598208 0.321569 0.129412 0.094118
vn -0.711876 -0.670832 0.207886
v -4.420574 1.210829 0.761519 0.564706 0.337255 0.247059
vn -0.792136 -0.346660 -0.502342
v -5.495183 7.017980 -4.247565 0.521569 0.282353 0.219608
vn -0.413973 0.689041 0.594852
v -1.504906 12.512292 4.407469 0.549020 0.403922 0.376471
vn -0.215928 0.312660 -0.924997
v -1.629052 10.092080 -7.164256 0.458824 0.247059 0.176471
vn 0.373562 -0.085120 -0.923691
v 2.743998 7.232774 -6.622841 0.764706 0.647059 0.592157
vn 0.232704 0.969705 -0.074300
v 2.424347 14.359821 -0.658116 0.682353 0.529412 0.447059
vn 0.004974 0.264285 0.964432
v 1.901554 10.420850 6.882096 0.619608 0.431373 0.364706
vn 0.591052 0.615443 0.521428
v 5.294160 11.214546 4.759305 0.549020 0.411765 0.384314
vn 0.765277 -0.190718 0.614799
v 5.655860 7.226743 4.750935 0.556863 0.356863 0.309804
vn 0.034748 -0.730271 -0.682274
v 0.135907 1.054380 -5.423700 0.403922 0.164706 0.101961
# 27 vertices, 0 vertices normals


usemtl material_0
vt 0.688637 0.659215
vt 0.686236 0.807718
vt 0.798257 0.705597
f 14/1/14 17/2/17 7/3/7
vt 0.791997 0.581466
vt 0.673261 0.566432
f 2/4/2 19/5/19 14/1/14
vt 0.770702 0.612348
vt 0.744213 0.647654
vt 0.774565 0.635929
f 2/6/2 14/7/14 11/8/11
vt 0.867085 0.035436
vt 0.889980 0.066650
vt 0.896278 0.014296
f 11/9/11 14/10/14 7/11/7
vt 0.749143 0.523561
f 21/12/21 19/5/19 2/4/2
vt 0.630853 0.743646
vt 0.608464 0.791641
vt 0.654841 0.786187
f 3/13/3 11/14/11 1/15/1
vt 0.620317 0.887747
f 1/15/1 11/14/11 20/16/20
vt 0.535310 0.078417
vt 0.548348 0.182123
vt 0.558653 0.190638
f 2/17/2 11/18/11 3/19/3
vt 0.721839 0.206526
vt 0.596337 0.254714
vt 0.607132 0.355707
f 23/20/23 1/21/1 20/22/20
vt 0.643931 0.016472
vt 0.652338 0.107904
f 21/23/21 2/17/2 3/24/3
vt 0.723704 0.197207
vt 0.635530 0.194530
f 23/25/23 3/26/3 1/21/1
vt 0.682031 0.132420
vt 0.728068 0.146315
f 3/27/3 23/25/23 4/28/4
vt 0.723708 0.049886
f 4/29/4 21/23/21 3/24/3
vt 0.785319 0.343698
vt 0.799463 0.236981
vt 0.767241 0.217226
f 25/30/25 6/31/6 23/32/23
vt 0.771420 0.176302
f 4/28/4 23/25/23 6/33/6
vt 0.076371 0.582940
vt 0.090867 0.680804
vt 0.222082 0.630421
f 4/34/4 22/35/22 21/36/21
vt 0.014991 0.683160
f 4/34/4 5/37/5 22/35/22
vt 0.978294 0.599046
vt 0.932294 0.449434
vt 0.899662 0.605603
f 26/38/26 6/39/6 25/40/25
vt 0.859789 0.314459
vt 0.979048 0.331051
f 4/41/4 6/39/6 5/42/5
vt 0.022499 0.800369
vt 0.136708 0.881952
vt 0.074009 0.720050
f 5/43/5 27/44/27 22/45/22
vt 0.297445 0.876545
vt 0.316648 0.984528
vt 0.442590 0.864200
f 6/46/6 26/47/26 12/48/12
vt 0.325698 0.748657
f 5/49/5 6/46/6 12/48/12
vt 0.342547 0.436536
vt 0.336398 0.513735
vt 0.378364 0.454834
f 8/50/8 13/51/13 9/52/9
vt 0.932877 0.035075
vt 0.938378 0.020679
vt 0.923303 0.034994
f 10/53/10 13/54/13 15/55/15
vt 0.017324 0.919547
vt 0.095796 0.926347
vt 0.028157 0.892328
f 10/56/10 24/57/24 9/58/9
vt 0.505040 0.441515
vt 0.395357 0.455938
vt 0.395348 0.534638
f 24/59/24 10/60/10 15/61/15
vt 0.462140 0.245395
vt 0.517246 0.358057
vt 0.520316 0.224045
f 7/62/7 8/63/8 11/64/11
vt 0.594240 0.868359
vt 0.584105 0.909226
f 11/65/11 9/66/9 20/16/20
vt 0.778690 0.840954
f 8/67/8 7/3/7 17/2/17
vt 0.459644 0.384965
vt 0.426025 0.417875
vt 0.506783 0.465355
f 20/68/20 9/69/9 24/70/24
vt 0.960923 0.028395
vt 0.964252 0.011120
vt 0.946033 0.015912
f 10/71/10 9/72/9 13/73/13
vt 0.567026 0.359883
vt 0.557681 0.314808
f 9/74/9 11/75/11 8/63/8
vt 0.724765 0.845787
f 17/2/17 13/76/13 8/67/8
vt 0.589350 0.574555
vt 0.418260 0.601890
vt 0.536098 0.729695
f 24/77/24 15/78/15 16/79/16
vt 0.062534 0.004469
vt 0.060246 0.009974
vt 0.070064 0.005154
f 12/80/12 26/81/26 16/82/16
vt 0.642049 0.589466
f 16/79/16 26/83/26 24/77/24
vt 0.397490 0.120171
vt 0.418829 0.259991
vt 0.437125 0.188005
f 19/84/19 17/85/17 14/86/14
vt 0.981903 0.842169
vt 0.815974 0.838456
vt 0.962605 0.926256
f 17/87/17 18/88/18 15/89/15
vt 0.376306 0.380613
vt 0.310132 0.415085
f 13/90/13 17/85/17 15/91/15
vt 0.957672 0.704740
f 19/92/19 18/88/18 17/87/17
vt 0.268177 0.796824
vt 0.206066 0.713985
f 19/93/19 21/94/21 27/44/27
vt 0.815110 0.709806
vt 0.814794 0.737969
f 27/95/27 18/96/18 19/92/19
f 21/94/21 22/45/22 27/44/27
vt 0.752726 0.393759
f 20/22/20 25/97/25 23/20/23
vt 0.716223 0.404735
f 25/97/25 20/22/20 24/98/24
vt 0.922673 0.659265
vt 0.887956 0.634147
vt 0.915882 0.668792
f 26/99/26 25/100/25 24/101/24
vt 0.540245 0.002582
vt 0.548401 0.001355
vt 0.536133 0.002492
f 15/102/15 18/103/18 16/104/16
vt 0.042975 0.884365
f 5/43/5 12/105/12 27/44/27
vt 0.383834 0.059909
vt 0.384650 0.061424
vt 0.385167 0.058767
f 12/106/12 16/107/16 27/108/27
vt 0.386482 0.060473
f 16/107/16 18/109/18 27/108/27
# 50 faces, 109 coords texture

# End of File
