####
#
# OBJ File Generated by Meshlab
#
####
# Object muffin_162.obj
#
# Vertices: 83
# Faces: 162
#
####
mtllib ./muffin_162.obj.mtl

vn -0.527445 0.779573 0.337738
v -5.013534 11.851455 -2.069953 0.439216 0.286275 0.274510
vn -0.895593 0.439207 0.070781
v -6.310183 10.555797 -2.784581 0.509804 0.337255 0.309804
vn -0.470249 0.875480 -0.111361
v -3.876210 11.846082 0.012963 0.258824 0.129412 0.109804
vn -0.523558 0.841175 0.135322
v -4.474561 11.316947 -1.280493 0.447059 0.321569 0.329412
vn -0.571342 0.795126 -0.203330
v -3.149322 11.968928 -0.873254 0.247059 0.156863 0.156863
vn -0.734594 0.671601 -0.096558
v -3.176157 12.955126 0.268331 0.247059 0.129412 0.109804
vn -0.316254 0.948136 0.031958
v -1.777663 13.934804 0.827597 0.537255 0.356863 0.301961
vn -0.445667 0.835627 -0.321106
v -2.031847 12.916068 -0.674339 0.431373 0.321569 0.309804
vn -0.515322 0.695633 -0.500537
v -4.345950 12.130623 -4.600790 0.286275 0.164706 0.156863
vn -0.361443 0.836783 -0.411281
v -0.355567 13.877186 -1.249627 0.564706 0.403922 0.356863
vn -0.302179 0.846709 -0.437918
v -0.721111 12.765100 -2.668823 0.329412 0.203922 0.200000
vn -0.150240 0.988337 -0.024866
v -2.341264 12.942860 -2.905380 0.231373 0.109804 0.109804
vn 0.105733 0.454911 -0.884238
v -1.086859 11.053717 -7.150588 0.411765 0.219608 0.176471
vn -0.260265 0.700875 -0.664106
v 0.010208 13.262086 -3.150536 0.439216 0.309804 0.294118
vn 0.019336 0.743319 -0.668658
v 0.038521 11.973454 -3.646628 0.419608 0.321569 0.321569
vn 0.127127 0.854501 -0.503654
v -0.089423 11.606124 -6.060005 0.564706 0.419608 0.403922
vn 0.246876 0.596707 -0.763540
v 0.210566 10.028787 -6.484897 0.294118 0.192157 0.184314
vn -0.063878 0.957794 -0.280269
v 1.453873 14.277159 -0.977550 0.603922 0.486275 0.474510
vn 0.116180 0.429420 -0.895601
v 0.125606 9.602012 -7.238279 0.603922 0.419608 0.376471
vn 0.338332 0.624454 -0.703981
v 2.575199 12.897428 -2.793503 0.384314 0.274510 0.274510
vn 0.692130 0.419951 -0.587024
v 4.292437 12.447020 -1.620149 0.549020 0.403922 0.384314
vn 0.822996 0.528142 -0.209149
v 4.795817 12.834118 -0.190654 0.466667 0.294118 0.254902
vn 0.348218 0.769009 -0.536069
v 2.652998 12.304568 -3.038937 0.427451 0.274510 0.258824
vn 0.696989 0.716344 0.032522
v 5.529784 11.034588 0.254784 0.458824 0.294118 0.274510
vn 0.672733 0.696414 -0.249875
v 5.077911 11.543981 -0.651663 0.564706 0.431373 0.427451
vn 0.756046 0.654456 -0.009027
v 6.750641 10.822627 0.697827 0.564706 0.384314 0.337255
vn 0.621924 0.765122 0.166729
v 6.564388 11.309643 -1.230662 0.419608 0.258824 0.239216
vn 0.220599 0.634427 -0.740836
v 2.626513 11.384299 -6.304224 0.631373 0.439216 0.392157
vn 0.932680 0.340431 -0.119223
v 7.064207 9.772469 -0.714994 0.556863 0.364706 0.309804
vn 0.693676 0.620813 -0.365247
v 6.051593 11.184215 -3.031287 0.537255 0.329412 0.274510
vn 0.627349 -0.379944 -0.679761
v 5.293986 7.364068 -5.448083 0.647059 0.392157 0.294118
vn 0.579909 -0.806427 -0.115671
v 4.855429 1.239414 -1.199982 0.576471 0.337255 0.258824
vn 0.784204 -0.266885 -0.560176
v 4.973211 4.583665 -3.951200 0.631373 0.376471 0.286275
vn 0.790780 -0.516522 -0.328438
v 6.687841 7.026566 -3.273682 0.756863 0.474510 0.364706
vn 0.899255 -0.418392 0.127629
v 7.383060 6.967100 0.324733 0.666667 0.392157 0.282353
vn 0.678604 -0.615380 -0.401004
v 5.372156 6.712399 -3.795510 0.458824 0.247059 0.184314
vn 0.668131 -0.743974 0.010157
v 6.475536 6.646480 0.495762 0.466667 0.227451 0.156863
vn -0.580143 0.814143 -0.024604
v -6.229900 11.676452 0.175421 0.549020 0.337255 0.286275
vn -0.331124 0.591468 0.735202
v -3.846692 11.079708 4.728879 0.482353 0.321569 0.309804
vn -0.645492 0.567645 0.510998
v -1.393723 11.130986 4.619331 0.454902 0.294118 0.254902
vn -0.646888 0.273858 0.711715
v -3.823251 8.840171 4.772478 0.447059 0.254902 0.211765
vn -0.376588 0.815366 0.439727
v -2.172583 10.567149 4.567293 0.611765 0.447059 0.349020
vn -0.578607 0.671265 0.463268
v -2.485314 10.374031 5.618564 0.521569 0.309804 0.282353
vn -0.378288 -0.218813 0.899455
v -2.166969 7.482130 6.564136 0.576471 0.384314 0.349020
vn -0.508041 0.750746 0.422226
v -2.910196 11.539229 2.413031 0.439216 0.286275 0.266667
vn -0.668351 0.455409 0.588141
v -1.995301 12.336182 3.921614 0.576471 0.419608 0.400000
vn -0.236006 -0.621691 0.746861
v -1.641315 6.628564 5.518972 0.521569 0.258824 0.176471
vn 0.957569 -0.274483 0.087865
v 6.035943 3.787275 0.984657 0.501961 0.258824 0.184314
vn 0.487169 -0.506311 0.711558
v 3.268652 1.510104 3.833554 0.466667 0.239216 0.164706
vn 0.205215 -0.616984 0.759748
v 3.059227 6.435872 5.336122 0.486275 0.231373 0.137255
vn 0.656851 -0.606572 0.447902
v 5.044002 6.314166 3.755688 0.537255 0.286275 0.192157
vn -0.980399 0.191512 -0.046266
v -6.680386 8.593424 -1.277500 0.611765 0.337255 0.247059
vn -0.659615 -0.333958 0.673335
v -4.521345 7.213026 4.707390 0.584314 0.356863 0.286275
vn -0.866438 -0.293366 0.404006
v -6.052692 7.165026 2.679781 0.427451 0.164706 0.082353
vn -0.560560 -0.610512 0.559507
v -3.869241 6.552060 4.038229 0.686275 0.509804 0.427451
vn -0.684645 -0.530641 0.499681
v -3.766688 1.418753 2.227295 0.509804 0.258824 0.184314
vn -0.795864 -0.604955 -0.025097
v -6.641998 7.267122 -1.361480 0.447059 0.239216 0.156863
vn -0.243250 -0.247326 0.937902
v -1.932901 4.762012 5.279224 0.447059 0.200000 0.109804
vn -0.047070 -0.928779 0.367632
v 0.328802 1.373210 4.274142 0.474510 0.258824 0.184314
vn -0.823017 -0.563232 0.073576
v -5.830295 6.761278 0.524142 0.321569 0.129412 0.094118
vn -0.824356 -0.360030 -0.436823
v -6.174987 7.323882 -4.133650 0.631373 0.364706 0.274510
vn -0.670530 -0.689799 -0.273069
v -5.105152 6.748537 -3.466735 0.439216 0.200000 0.129412
vn -0.525275 -0.847033 -0.081374
v -4.272895 1.336627 -1.091443 0.564706 0.337255 0.247059
vn -0.830554 -0.297595 -0.470762
v -4.515126 3.735762 -3.677438 0.521569 0.282353 0.219608
vn 0.047489 -0.619317 0.783704
v 0.654730 7.043842 6.803556 0.600000 0.384314 0.309804
vn -0.498726 -0.195595 -0.844402
v -3.673427 7.606795 -6.682257 0.631373 0.364706 0.266667
vn -0.056035 -0.421056 -0.905302
v -0.731526 7.436039 -7.420359 0.647059 0.384314 0.286275
vn -0.084684 0.817304 0.569950
v 0.268043 12.650558 4.925159 0.549020 0.403922 0.376471
vn -0.274703 -0.566796 -0.776712
v -1.380334 1.272382 -4.976432 0.486275 0.227451 0.149020
vn -0.386940 -0.604652 -0.696185
v -3.170076 6.477186 -5.682398 0.458824 0.247059 0.176471
vn 0.266478 -0.576690 -0.772281
v 2.754219 6.795350 -6.046866 0.466667 0.231373 0.137255
vn 0.280753 -0.240175 -0.929244
v 2.676848 7.711114 -7.283331 0.764706 0.647059 0.592157
vn -0.228794 0.492670 0.839601
v 0.620094 11.011020 6.153471 0.564706 0.419608 0.392157
vn 0.451698 0.520432 0.724651
v 4.052202 10.978761 6.107853 0.509804 0.364706 0.337255
vn 0.359722 0.933045 0.005306
v 3.210305 14.089051 -0.222788 0.682353 0.529412 0.447059
vn 0.534731 -0.535819 0.653423
v 5.096353 6.878777 5.291313 0.431373 0.247059 0.192157
vn 0.181953 0.182143 0.966290
v 2.966118 9.722608 6.825037 0.619608 0.431373 0.364706
vn 0.726941 0.663966 0.175232
v 5.199356 12.080314 2.700343 0.509804 0.364706 0.329412
vn 0.719645 0.263479 0.642409
v 4.966105 10.306185 5.305201 0.419608 0.258824 0.219608
vn 0.799797 0.511472 0.314199
v 6.255365 10.337148 3.506148 0.509804 0.329412 0.294118
vn 0.334653 0.743563 0.578897
v 3.696959 11.478854 5.574268 0.549020 0.411765 0.384314
vn 0.865854 -0.050786 0.497712
v 6.602177 7.976916 3.945127 0.556863 0.356863 0.309804
vn 0.257007 -0.839674 -0.478429
v 1.961463 1.338299 -4.546153 0.403922 0.164706 0.101961
# 83 vertices, 0 vertices normals


usemtl material_0
vt 0.343364 0.372531
vt 0.304946 0.430161
vt 0.376306 0.380613
f 55/1/55 44/2/44 53/3/53
vt 0.301967 0.406857
f 55/1/55 47/4/47 44/2/44
vt 0.444881 0.568493
vt 0.376291 0.578442
vt 0.427311 0.633835
f 47/5/47 55/6/55 58/7/58
vt 0.266937 0.417940
vt 0.238051 0.449003
f 44/2/44 47/8/47 65/9/65
vt 0.142289 0.407316
f 47/8/47 50/10/50 65/9/65
vt 0.091532 0.412812
f 50/10/50 76/11/76 65/9/65
vt 0.589350 0.574555
f 58/7/58 50/12/50 47/5/47
vt 0.586023 0.721915
vt 0.500055 0.734963
f 49/13/49 58/7/58 59/14/59
vt 0.532180 0.300046
vt 0.520537 0.227904
vt 0.462140 0.245395
f 45/15/45 3/16/3 38/17/38
vt 0.722538 0.660828
vt 0.686236 0.807718
vt 0.798257 0.705597
f 52/18/52 54/19/54 38/20/38
vt 0.506642 0.185016
f 3/16/3 4/21/4 38/17/38
vt 0.121240 0.005395
vt 0.111310 0.004116
vt 0.114633 0.011574
f 12/22/12 1/23/1 4/24/4
vt 0.773700 0.601300
vt 0.673261 0.566432
f 2/25/2 61/26/61 52/18/52
vt 0.798164 0.622753
vt 0.770702 0.612348
vt 0.760013 0.644969
f 1/27/1 2/28/2 4/29/4
vt 0.805798 0.567392
f 2/25/2 9/30/9 61/26/61
vt 0.744213 0.647654
f 2/28/2 52/31/52 4/29/4
vt 0.442164 0.070674
vt 0.454391 0.070796
vt 0.450303 0.060653
f 2/32/2 1/33/1 9/34/9
vt 0.486144 0.151110
vt 0.568786 0.135366
vt 0.524942 0.075200
f 1/35/1 12/36/12 9/37/9
vt 0.867085 0.035436
vt 0.889980 0.066650
vt 0.896278 0.014296
f 4/38/4 52/39/52 38/40/38
vt 0.749143 0.523561
f 66/41/66 61/26/61 9/30/9
vt 0.606624 0.783427
vt 0.603106 0.842213
vt 0.644015 0.771384
f 3/42/3 45/43/45 6/44/6
vt 0.616128 0.737401
f 5/45/5 3/42/3 6/44/6
vt 0.540971 0.200070
f 4/21/4 3/16/3 5/46/5
vt 0.630853 0.743646
f 8/47/8 5/45/5 6/44/6
vt 0.658797 0.381106
vt 0.596337 0.254714
vt 0.583425 0.335917
f 68/48/68 7/49/7 46/50/46
f 5/46/5 12/36/12 4/21/4
vt 0.620317 0.887747
f 6/44/6 45/43/45 46/51/46
vt 0.548348 0.182123
vt 0.558653 0.190638
f 12/36/12 5/52/5 8/53/8
vt 0.650467 0.796195
f 7/54/7 6/44/6 46/51/46
vt 0.585626 0.271910
vt 0.592289 0.214323
vt 0.558100 0.234434
f 7/55/7 8/56/8 6/57/6
vt 0.605953 0.176987
vt 0.624962 0.186444
vt 0.623299 0.158453
f 8/58/8 10/59/10 11/60/11
vt 0.211352 0.585339
vt 0.282456 0.682293
vt 0.287214 0.552815
f 13/61/13 66/62/66 9/63/9
vt 0.601453 0.008419
vt 0.639194 0.031113
f 13/64/13 9/37/9 16/65/16
vt 0.684577 0.189815
vt 0.651192 0.128410
f 11/60/11 18/66/18 14/67/14
f 9/37/9 12/36/12 16/65/16
vt 0.745877 0.222966
f 75/68/75 7/49/7 68/48/68
vt 0.193014 0.689842
f 67/69/67 66/62/66 13/61/13
vt 0.652338 0.107904
f 16/65/16 12/36/12 15/70/15
vt 0.644821 0.186359
vt 0.614367 0.208396
f 10/71/10 8/72/8 7/49/7
vt 0.626585 0.130623
vt 0.587240 0.180729
f 11/73/11 12/36/12 8/74/8
vt 0.409386 0.005677
vt 0.408575 0.013829
vt 0.423081 0.013346
f 10/75/10 18/76/18 11/77/11
f 18/66/18 10/71/10 7/49/7
vt 0.633493 0.115536
f 12/36/12 11/73/11 15/78/15
vt 0.773361 0.862488
vt 0.775800 0.898996
vt 0.793067 0.886769
f 14/79/14 15/80/15 11/81/11
vt 0.708664 0.895113
vt 0.705559 0.872480
f 23/82/23 15/80/15 20/83/20
vt 0.166837 0.615962
vt 0.090867 0.680804
f 19/84/19 72/85/72 67/69/67
vt 0.837899 0.009321
vt 0.793071 0.015014
vt 0.818493 0.024761
f 19/86/19 13/87/13 17/88/17
f 18/66/18 7/49/7 75/68/75
f 13/61/13 19/84/19 67/69/67
vt 0.682031 0.132420
vt 0.728068 0.146315
f 14/89/14 18/66/18 20/90/20
vt 0.783736 0.025119
f 13/87/13 16/91/16 17/88/17
vt 0.722157 0.120520
f 23/92/23 16/65/16 15/70/15
vt 0.729756 0.039754
vt 0.672842 0.027354
f 16/65/16 28/93/28 17/94/17
f 28/93/28 16/65/16 23/92/23
vt 0.388697 0.009990
vt 0.371875 0.004772
vt 0.367643 0.015071
f 28/95/28 19/96/19 17/97/17
f 14/79/14 20/83/20 15/80/15
vt 0.966908 0.050858
vt 0.958679 0.070862
vt 0.970410 0.056307
f 78/98/78 81/99/81 80/100/80
vt 0.801054 0.309716
vt 0.799463 0.236981
vt 0.767241 0.217226
f 78/101/78 22/102/22 75/103/75
vt 0.756228 0.202819
f 75/104/75 20/90/20 18/66/18
vt 0.418698 0.039899
vt 0.413043 0.021954
vt 0.405872 0.038796
f 25/105/25 23/106/23 21/107/21
vt 0.768873 0.168662
f 20/90/20 75/104/75 21/108/21
vt 0.400418 0.034456
f 20/109/20 21/107/21 23/106/23
vt 0.829778 0.079389
vt 0.837738 0.084666
vt 0.833586 0.076599
f 22/110/22 25/111/25 21/112/21
vt 0.771123 0.181661
f 22/113/22 21/108/21 75/104/75
vt 0.852118 0.563663
vt 0.858943 0.478900
vt 0.832719 0.548095
f 80/114/80 24/115/24 78/116/78
vt 0.841292 0.443405
vt 0.807522 0.456982
f 24/115/24 25/117/25 22/118/22
vt 0.076371 0.582940
f 28/119/28 72/85/72 19/84/19
vt 0.823529 0.237326
vt 0.842019 0.310216
vt 0.850226 0.244974
f 24/120/24 80/121/80 26/122/26
vt 0.868861 0.439607
vt 0.872744 0.445397
vt 0.889966 0.445132
f 27/123/27 24/124/24 29/125/29
vt 0.827680 0.524181
f 24/115/24 22/118/22 78/126/78
vt 0.835430 0.133165
vt 0.800157 0.196556
f 30/127/30 23/92/23 25/128/25
vt 0.850323 0.186635
vt 0.834271 0.211593
f 27/129/27 25/128/25 24/130/24
vt 0.542860 0.026536
vt 0.549454 0.014420
vt 0.529894 0.015967
f 26/131/26 29/132/29 24/133/24
vt 0.014991 0.683160
f 28/119/28 31/134/31 72/85/72
vt 0.898003 0.437997
vt 0.877419 0.489704
vt 0.985385 0.479845
f 29/135/29 26/136/26 35/137/35
f 28/93/28 23/92/23 30/127/30
vt 0.836839 0.135151
f 30/138/30 25/128/25 27/129/27
vt 0.886849 0.575723
f 80/139/80 35/137/35 26/136/26
vt 0.956423 0.590156
f 82/140/82 35/137/35 80/139/80
vt 0.856316 0.356552
vt 0.855051 0.420971
f 29/135/29 30/141/30 27/142/27
vt 0.859789 0.314459
vt 0.972439 0.295665
f 28/143/28 30/141/30 31/144/31
vt 0.984505 0.368613
f 29/135/29 35/137/35 34/145/34
f 34/145/34 31/144/31 30/141/30
f 29/135/29 34/145/34 30/141/30
vt 0.385567 0.910033
vt 0.456227 0.972372
vt 0.463113 0.829878
f 48/146/48 49/147/49 32/148/32
vt 0.022499 0.800369
vt 0.078746 0.885251
vt 0.074009 0.720050
f 33/149/33 83/150/83 71/151/71
vt 0.297445 0.876545
vt 0.316648 0.984528
f 37/152/37 51/153/51 48/146/48
vt 0.371764 0.746886
f 48/146/48 32/148/32 33/154/33
vt 0.058815 0.340834
vt 0.012490 0.304575
f 51/155/51 35/156/35 76/11/76
vt 0.075180 0.061648
vt 0.063905 0.114786
vt 0.156763 0.045479
f 31/157/31 36/158/36 71/159/71
vt 0.159128 0.015827
f 72/160/72 31/157/31 71/159/71
vt 0.022361 0.718449
vt 0.011705 0.765829
f 36/161/36 33/162/33 71/151/71
vt 0.304492 0.753106
f 36/163/36 48/146/48 33/154/33
vt 0.023990 0.240639
f 35/156/35 51/155/51 37/164/37
vt 0.026105 0.129262
f 31/157/31 34/165/34 36/158/36
f 34/165/34 37/164/37 36/158/36
vt 0.004672 0.223790
f 35/166/35 37/164/37 34/165/34
f 36/163/36 37/152/37 48/146/48
vt 0.342547 0.436536
vt 0.346613 0.493279
vt 0.378364 0.454834
f 39/167/39 41/168/41 42/169/42
vt 0.941805 0.022116
vt 0.934129 0.020565
vt 0.923303 0.034994
f 41/170/41 53/171/53 44/172/44
vt 0.932877 0.035075
f 43/173/43 41/170/41 44/172/44
vt 0.487680 0.549622
vt 0.558644 0.464943
vt 0.395348 0.534638
f 65/174/65 77/175/77 44/176/44
vt 0.017324 0.919547
vt 0.095796 0.926347
vt 0.040079 0.894617
f 43/177/43 73/178/73 40/179/40
vt 0.457325 0.430302
vt 0.395357 0.455938
f 73/180/73 43/181/43 44/176/44
vt 0.517246 0.358057
f 38/17/38 39/182/39 45/15/45
vt 0.015284 0.891428
f 43/177/43 40/179/40 42/183/42
vt 0.328280 0.499701
vt 0.322643 0.538491
f 54/184/54 53/185/53 41/168/41
vt 0.594240 0.868359
vt 0.584105 0.909226
f 45/186/45 40/187/40 46/51/46
vt 0.778690 0.840954
f 39/188/39 38/20/38 54/19/54
vt 0.427634 0.390750
vt 0.426025 0.417875
vt 0.471802 0.417081
f 46/189/46 40/190/40 73/191/73
vt 0.960923 0.028395
vt 0.964252 0.011120
vt 0.946033 0.015912
f 43/192/43 42/193/42 41/194/41
vt 0.567026 0.359883
vt 0.557681 0.314808
f 42/195/42 45/196/45 39/182/39
vt 0.407566 0.418408
vt 0.388924 0.439205
vt 0.415434 0.423569
f 45/197/45 42/198/42 40/199/40
vt 0.724765 0.845787
f 54/19/54 41/200/41 39/188/39
vt 0.488102 0.379613
f 46/189/46 73/191/73 68/201/68
f 73/180/73 44/176/44 77/175/77
vt 0.602462 0.540189
f 77/175/77 65/174/65 76/202/76
f 50/12/50 58/7/58 49/13/49
vt 0.062534 0.004469
vt 0.060246 0.009974
vt 0.070064 0.005154
f 48/203/48 51/204/51 49/205/49
f 51/155/51 76/11/76 50/10/50
vt 0.642049 0.589466
f 49/13/49 51/206/51 50/12/50
vt 0.993218 0.594751
f 82/140/82 76/207/76 35/137/35
vt 0.440220 0.210535
vt 0.414575 0.238642
vt 0.424972 0.298493
f 57/208/57 60/209/60 54/210/54
vt 0.665929 0.761466
vt 0.666701 0.651430
f 54/211/54 52/18/52 57/212/57
f 57/212/57 52/18/52 61/26/61
vt 0.437125 0.188005
vt 0.407093 0.102576
vt 0.394258 0.136885
f 57/213/57 61/214/61 62/215/62
f 60/209/60 55/1/55 54/210/54
f 62/215/62 60/209/60 57/213/57
vt 0.981903 0.842169
vt 0.816589 0.894171
vt 0.962605 0.926256
f 60/216/60 56/217/56 55/218/55
f 53/3/53 54/210/54 55/1/55
vt 0.815021 0.794517
f 63/219/63 56/217/56 60/216/60
vt 0.983609 0.714787
vt 0.886432 0.709392
f 62/220/62 64/221/64 60/216/60
vt 0.971803 0.670706
f 70/222/70 64/221/64 62/220/62
vt 0.328965 0.058069
f 61/214/61 70/223/70 62/215/62
vt 0.370754 0.678101
vt 0.402488 0.734467
f 58/7/58 55/224/55 56/225/56
vt 0.324756 0.026954
f 61/214/61 66/226/66 70/223/70
f 64/221/64 63/219/63 60/216/60
vt 0.268177 0.796824
vt 0.234790 0.726960
vt 0.204148 0.883812
f 64/227/64 70/228/70 69/229/69
vt 0.815110 0.709806
vt 0.814794 0.737969
f 69/230/69 63/231/63 64/221/64
vt 0.164991 0.708645
f 71/151/71 70/228/70 67/232/67
vt 0.252650 0.009203
f 70/223/70 66/226/66 67/233/67
f 70/228/70 71/151/71 69/229/69
f 67/233/67 72/160/72 71/159/71
vt 0.614677 0.456818
vt 0.594668 0.429891
f 77/175/77 79/234/79 74/235/74
f 69/229/69 71/151/71 83/150/83
vt 0.915430 0.616894
f 80/139/80 79/236/79 82/140/82
vt 0.752726 0.393759
f 68/48/68 81/237/81 75/68/75
vt 0.799525 0.373869
vt 0.776462 0.411186
vt 0.803599 0.394716
f 81/238/81 74/239/74 79/240/79
vt 0.570111 0.410731
f 81/241/81 73/191/73 77/175/77
vt 0.629262 0.465904
vt 0.647774 0.523913
f 79/242/79 76/202/76 82/243/82
vt 0.900343 0.615981
vt 0.879417 0.610986
f 79/244/79 80/139/80 81/245/81
vt 0.578821 0.430826
vt 0.571124 0.433783
f 74/246/74 81/247/81 77/175/77
vt 0.760418 0.400151
f 81/248/81 78/101/78 75/68/75
vt 0.716223 0.404735
f 81/237/81 68/48/68 73/249/73
vt 0.922673 0.659265
vt 0.887956 0.634147
vt 0.915882 0.668792
f 76/250/76 79/251/79 77/252/77
vt 0.540245 0.002582
vt 0.548401 0.001355
vt 0.536133 0.002492
f 58/253/58 56/254/56 59/255/59
vt 0.042975 0.884365
f 33/149/33 32/256/32 83/150/83
vt 0.384197 0.061240
vt 0.385172 0.061514
vt 0.383834 0.059909
f 49/257/49 59/258/59 32/259/32
vt 0.385621 0.058847
vt 0.384671 0.058903
vt 0.386489 0.059962
f 69/260/69 83/261/83 63/262/63
vt 0.386307 0.060915
f 56/263/56 63/262/63 59/258/59
f 32/259/32 59/258/59 83/261/83
f 59/258/59 63/262/63 83/261/83
# 162 faces, 263 coords texture

# End of File
