####
#
# OBJ File Generated by Meshlab
#
####
# Object muffin_10.obj
#
# Vertices: 7
# Faces: 10
#
####
mtllib ./muffin_10.obj.mtl

vn 0.957297 -0.219343 -0.188337
v 6.983174 6.150763 -0.449728 0.501961 0.258824 0.184314
vn -0.695333 -0.339934 0.633211
v -4.954693 3.358922 3.529146 0.564706 0.337255 0.247059
vn -0.849290 0.122895 -0.513423
v -6.122552 10.231801 -3.075430 0.521569 0.282353 0.219608
vn -0.422422 0.810451 0.405868
v -2.059773 13.532861 3.281058 0.549020 0.403922 0.376471
vn 0.397696 0.597926 -0.695933
v 2.160957 12.179472 -5.612596 0.682353 0.529412 0.447059
vn 0.595255 0.113732 0.795448
v 4.635084 10.182857 6.771647 0.556863 0.356863 0.309804
vn 0.119637 -0.926705 -0.356237
v 0.819970 0.340360 -1.368367 0.403922 0.164706 0.101961
# 7 vertices, 0 vertices normals


usemtl material_0
vt 0.630853 0.743646
vt 0.608464 0.791641
vt 0.619973 0.867736
f 5/1/5 3/2/3 4/3/4
vt 0.785319 0.343698
vt 0.799463 0.236981
vt 0.767241 0.217226
f 6/4/6 1/5/1 5/6/5
vt 0.505040 0.441515
vt 0.395357 0.455938
vt 0.395348 0.534638
f 6/7/6 4/8/4 2/9/2
vt 0.778690 0.840954
vt 0.726882 0.602462
vt 0.697256 0.838289
f 4/10/4 3/11/3 2/12/2
vt 0.604217 0.579402
vt 0.418260 0.601890
vt 0.536098 0.729695
f 6/13/6 2/14/2 7/15/7
vt 0.062534 0.004469
vt 0.060246 0.009974
vt 0.070064 0.005154
f 1/16/1 6/17/6 7/18/7
vt 0.268177 0.796824
vt 0.121089 0.732312
vt 0.136708 0.881952
f 3/19/3 5/20/5 7/21/7
vt 0.815110 0.709806
vt 0.814794 0.737969
vt 0.957672 0.704740
f 7/22/7 2/23/2 3/24/3
vt 0.594007 0.309557
vt 0.734384 0.409196
vt 0.721839 0.206526
f 4/25/4 6/26/6 5/27/5
vt 0.042975 0.884365
f 5/20/5 1/28/1 7/21/7
# 10 faces, 28 coords texture

# End of File
