####
#
# OBJ File Generated by Meshlab
#
####
# Object muffin_134.obj
#
# Vertices: 69
# Faces: 134
#
####
mtllib ./muffin_134.obj.mtl

vn -0.527445 0.779573 0.337738
v -5.013534 11.851455 -2.069953 0.439216 0.286275 0.274510
vn -0.904662 0.417121 0.087158
v -6.310183 10.555797 -2.784581 0.509804 0.337255 0.309804
vn -0.599212 0.780976 0.176130
v -4.474561 11.316947 -1.280493 0.447059 0.321569 0.329412
vn -0.483888 0.872950 -0.061730
v -3.821923 11.762366 -0.285324 0.247059 0.156863 0.156863
vn -0.514261 0.857163 0.028404
v -2.307391 13.768094 0.772637 0.537255 0.356863 0.301961
vn -0.456718 0.855521 -0.243911
v -2.031847 12.916068 -0.674339 0.431373 0.321569 0.309804
vn -0.515322 0.695633 -0.500537
v -4.345950 12.130623 -4.600790 0.286275 0.164706 0.156863
vn -0.370615 0.833707 -0.409363
v -0.700434 12.840019 -2.605272 0.329412 0.203922 0.200000
vn -0.155367 0.986259 -0.056165
v -2.341264 12.942860 -2.905380 0.231373 0.109804 0.109804
vn -0.020921 0.411259 -0.911278
v -1.086859 11.053717 -7.150588 0.411765 0.219608 0.176471
vn -0.239778 0.693338 -0.679551
v 0.010208 13.262086 -3.150536 0.439216 0.309804 0.294118
vn -0.036513 0.802000 -0.596208
v 0.038521 11.973454 -3.646628 0.419608 0.321569 0.321569
vn 0.110349 0.872342 -0.476280
v -0.089423 11.606124 -6.060005 0.564706 0.419608 0.403922
vn -0.057736 0.959075 -0.277205
v 1.453873 14.277159 -0.977550 0.603922 0.486275 0.474510
vn 0.169970 0.285504 -0.943185
v 0.100329 9.646909 -7.078725 0.603922 0.419608 0.376471
vn 0.782146 0.527360 -0.331873
v 4.705461 12.699803 -0.856278 0.466667 0.294118 0.254902
vn 0.315879 0.822282 -0.473364
v 2.836240 12.418006 -2.972020 0.427451 0.274510 0.258824
vn 0.701666 0.709490 -0.065489
v 5.453048 11.208299 -0.036286 0.564706 0.431373 0.427451
vn 0.792297 0.609972 0.014117
v 6.750641 10.822627 0.697827 0.564706 0.384314 0.337255
vn 0.336722 0.590900 -0.733114
v 2.626513 11.384299 -6.304224 0.631373 0.439216 0.392157
vn 0.930962 0.358891 -0.067135
v 7.064207 9.772469 -0.714994 0.556863 0.364706 0.309804
vn 0.768645 0.606241 -0.204103
v 6.653900 11.257525 -1.818882 0.537255 0.329412 0.274510
vn 0.640257 -0.370700 -0.672795
v 5.293986 7.364068 -5.448083 0.647059 0.392157 0.294118
vn 0.579909 -0.806427 -0.115671
v 4.855429 1.239414 -1.199982 0.576471 0.337255 0.258824
vn 0.784204 -0.266885 -0.560176
v 4.973211 4.583665 -3.951200 0.631373 0.376471 0.286275
vn 0.792974 -0.524283 -0.310353
v 6.687841 7.026566 -3.273682 0.756863 0.474510 0.364706
vn 0.899255 -0.418392 0.127629
v 7.383060 6.967100 0.324733 0.666667 0.392157 0.282353
vn 0.678604 -0.615380 -0.401004
v 5.372156 6.712399 -3.795510 0.458824 0.247059 0.184314
vn 0.668131 -0.743974 0.010157
v 6.475536 6.646480 0.495762 0.466667 0.227451 0.156863
vn -0.591421 0.805149 -0.044235
v -6.229900 11.676452 0.175421 0.549020 0.337255 0.286275
vn -0.405050 0.622090 0.670029
v -3.846692 11.079708 4.728879 0.482353 0.321569 0.309804
vn -0.515763 0.614411 0.597066
v -1.714472 10.930817 4.449254 0.611765 0.447059 0.349020
vn -0.572849 0.613923 0.543086
v -2.485314 10.374031 5.618564 0.521569 0.309804 0.282353
vn -0.343486 -0.247749 0.905891
v -2.166969 7.482130 6.564136 0.576471 0.384314 0.349020
vn -0.517954 0.790385 0.327131
v -2.910196 11.539229 2.413031 0.439216 0.286275 0.266667
vn -0.661453 0.436183 0.610102
v -1.995301 12.336182 3.921614 0.576471 0.419608 0.400000
vn 0.957569 -0.274483 0.087865
v 6.035943 3.787275 0.984657 0.501961 0.258824 0.184314
vn 0.480470 -0.508421 0.714602
v 3.268652 1.510104 3.833554 0.466667 0.239216 0.164706
vn 0.229450 -0.695548 0.680856
v 3.059227 6.435872 5.336122 0.486275 0.231373 0.137255
vn 0.656851 -0.606572 0.447902
v 5.044002 6.314166 3.755688 0.537255 0.286275 0.192157
vn -0.680443 -0.136285 0.720017
v -4.499507 7.388944 4.693530 0.584314 0.356863 0.286275
vn -0.834624 -0.392236 0.386723
v -6.052692 7.165026 2.679781 0.427451 0.164706 0.082353
vn -0.553293 -0.646410 0.525377
v -3.869241 6.552060 4.038229 0.686275 0.509804 0.427451
vn -0.670479 -0.514228 0.534815
v -3.766688 1.418753 2.227295 0.509804 0.258824 0.184314
vn -0.953515 -0.298381 -0.042167
v -6.766857 7.513833 -1.143097 0.447059 0.239216 0.156863
vn -0.215365 -0.559470 0.800382
v -1.784577 6.564723 5.593270 0.447059 0.200000 0.109804
vn -0.052658 -0.921788 0.384101
v 0.328802 1.373210 4.274142 0.474510 0.258824 0.184314
vn -0.800184 -0.589970 0.107896
v -5.830295 6.761278 0.524142 0.321569 0.129412 0.094118
vn -0.779443 -0.370680 -0.505040
v -6.174987 7.323882 -4.133650 0.631373 0.364706 0.274510
vn -0.553560 -0.826232 -0.104462
v -4.272895 1.336627 -1.091443 0.564706 0.337255 0.247059
vn -0.701148 -0.618227 -0.355228
v -4.990790 6.583222 -4.019423 0.521569 0.282353 0.219608
vn 0.052185 -0.598894 0.799127
v 0.654730 7.043842 6.803556 0.600000 0.384314 0.309804
vn -0.498726 -0.195595 -0.844402
v -3.673427 7.606795 -6.682257 0.631373 0.364706 0.266667
vn -0.029403 -0.409498 -0.911837
v -0.731526 7.436039 -7.420359 0.647059 0.384314 0.286275
vn -0.092997 0.819335 0.565723
v 0.268043 12.650558 4.925159 0.549020 0.403922 0.376471
vn -0.321916 -0.534907 -0.781181
v -1.380334 1.272382 -4.976432 0.486275 0.227451 0.149020
vn -0.330329 -0.641716 -0.692158
v -3.170076 6.477186 -5.682398 0.458824 0.247059 0.176471
vn 0.266478 -0.576690 -0.772281
v 2.754219 6.795350 -6.046866 0.466667 0.231373 0.137255
vn 0.268186 -0.224503 -0.936843
v 2.676848 7.711114 -7.283331 0.764706 0.647059 0.592157
vn -0.228282 0.507481 0.830873
v 0.620094 11.011020 6.153471 0.564706 0.419608 0.392157
vn 0.321793 0.945822 0.043244
v 3.210305 14.089051 -0.222788 0.682353 0.529412 0.447059
vn 0.527774 -0.541010 0.654800
v 5.096353 6.878777 5.291313 0.431373 0.247059 0.192157
vn 0.116500 0.211527 0.970404
v 2.966118 9.722608 6.825037 0.619608 0.431373 0.364706
vn 0.733322 0.661968 0.155037
v 5.199356 12.080314 2.700343 0.509804 0.364706 0.329412
vn 0.568337 0.350681 0.744323
v 4.135188 10.909078 6.045105 0.419608 0.258824 0.219608
vn 0.794597 0.529434 0.297178
v 6.255365 10.337148 3.506148 0.509804 0.329412 0.294118
vn 0.285669 0.743378 0.604800
v 3.696959 11.478854 5.574268 0.549020 0.411765 0.384314
vn 0.862039 -0.051764 0.504192
v 6.602177 7.976916 3.945127 0.556863 0.356863 0.309804
vn 0.257007 -0.839674 -0.478429
v 1.961463 1.338299 -4.546153 0.403922 0.164706 0.101961
# 69 vertices, 0 vertices normals


usemtl material_0
vt 0.343364 0.372531
vt 0.304946 0.430161
vt 0.376306 0.380613
f 43/1/43 34/2/34 41/3/41
vt 0.301967 0.406857
f 43/1/43 46/4/46 34/2/34
vt 0.266937 0.417940
vt 0.238051 0.449003
f 34/2/34 46/5/46 52/6/52
vt 0.142289 0.407316
f 46/5/46 39/7/39 52/6/52
vt 0.091532 0.412812
f 39/7/39 62/8/62 52/6/52
vt 0.586023 0.721915
vt 0.436218 0.585808
vt 0.500055 0.734963
f 38/9/38 46/10/46 47/11/47
vt 0.532180 0.300046
vt 0.527151 0.215668
vt 0.462140 0.245395
f 35/12/35 4/13/4 30/14/30
vt 0.688637 0.659215
vt 0.686236 0.807718
vt 0.798257 0.705597
f 45/15/45 42/16/42 30/17/30
vt 0.506642 0.185016
f 4/13/4 3/18/3 30/14/30
vt 0.121240 0.005395
vt 0.111310 0.004116
vt 0.114633 0.011574
f 9/19/9 1/20/1 3/21/3
vt 0.773700 0.601300
vt 0.673261 0.566432
f 2/22/2 49/23/49 45/15/45
vt 0.798164 0.622753
vt 0.770702 0.612348
vt 0.760013 0.644969
f 1/24/1 2/25/2 3/26/3
vt 0.805798 0.567392
f 2/22/2 7/27/7 49/23/49
vt 0.744213 0.647654
f 2/25/2 45/28/45 3/26/3
vt 0.442164 0.070674
vt 0.454391 0.070796
vt 0.450303 0.060653
f 2/29/2 1/30/1 7/31/7
vt 0.486144 0.151110
vt 0.568786 0.135366
vt 0.524942 0.075200
f 1/32/1 9/33/9 7/34/7
vt 0.867085 0.035436
vt 0.889980 0.066650
vt 0.896278 0.014296
f 3/35/3 45/36/45 30/37/30
vt 0.749143 0.523561
f 53/38/53 49/23/49 7/27/7
vt 0.611343 0.759234
vt 0.603106 0.842213
vt 0.654841 0.786187
f 4/39/4 35/40/35 5/41/5
vt 0.630853 0.743646
f 6/42/6 4/39/4 5/41/5
vt 0.658797 0.381106
vt 0.596337 0.254714
vt 0.583425 0.335917
f 55/43/55 5/44/5 36/45/36
f 4/13/4 9/33/9 3/18/3
vt 0.620317 0.887747
f 5/41/5 35/40/35 36/46/36
vt 0.548348 0.182123
vt 0.558653 0.190638
f 9/33/9 4/47/4 6/48/6
vt 0.211352 0.585339
vt 0.282456 0.682293
vt 0.287214 0.552815
f 10/49/10 53/50/53 7/51/7
vt 0.601453 0.008419
vt 0.639194 0.031113
f 10/52/10 7/34/7 13/53/13
vt 0.623986 0.168179
vt 0.684577 0.189815
vt 0.651192 0.128410
f 8/54/8 14/55/14 11/56/11
f 7/34/7 9/33/9 13/53/13
vt 0.745877 0.222966
f 61/57/61 5/44/5 55/43/55
vt 0.193014 0.689842
f 54/58/54 53/50/53 10/49/10
vt 0.652338 0.107904
f 13/53/13 9/33/9 12/59/12
vt 0.644821 0.186359
vt 0.614367 0.208396
f 8/60/8 6/61/6 5/44/5
vt 0.626585 0.130623
vt 0.587240 0.180729
f 8/62/8 9/33/9 6/63/6
f 14/55/14 8/60/8 5/44/5
vt 0.633493 0.115536
f 9/33/9 8/62/8 12/64/12
vt 0.773361 0.862488
vt 0.775800 0.898996
vt 0.793067 0.886769
f 11/65/11 12/66/12 8/67/8
vt 0.166837 0.615962
vt 0.090867 0.680804
f 15/68/15 59/69/59 54/58/54
f 14/55/14 5/44/5 61/57/61
f 10/49/10 15/68/15 54/58/54
vt 0.682031 0.132420
vt 0.728068 0.146315
f 11/70/11 14/55/14 17/71/17
vt 0.793071 0.015014
vt 0.783736 0.025119
vt 0.830343 0.015732
f 10/72/10 13/73/13 15/74/15
vt 0.722157 0.120520
f 17/75/17 13/53/13 12/59/12
vt 0.729756 0.039754
vt 0.672842 0.027354
f 13/53/13 20/76/20 15/77/15
f 20/76/20 13/53/13 17/75/17
vt 0.706335 0.886525
f 11/65/11 17/78/17 12/66/12
vt 0.966908 0.050858
vt 0.958679 0.070862
vt 0.970410 0.056307
f 64/79/64 67/80/67 66/81/66
vt 0.801054 0.309716
vt 0.799463 0.236981
vt 0.767241 0.217226
f 64/82/64 16/83/16 61/84/61
vt 0.756228 0.202819
f 61/85/61 17/71/17 14/55/14
vt 0.418698 0.039899
vt 0.410328 0.024848
vt 0.405872 0.038796
f 18/86/18 17/87/17 16/88/16
vt 0.771420 0.176302
f 17/71/17 61/85/61 16/89/16
vt 0.852118 0.563663
vt 0.852274 0.465213
vt 0.832719 0.548095
f 66/90/66 18/91/18 64/92/64
vt 0.076371 0.582940
f 20/93/20 59/69/59 15/68/15
vt 0.823529 0.237326
vt 0.842019 0.310216
vt 0.850226 0.244974
f 18/94/18 66/95/66 19/96/19
vt 0.868861 0.439607
vt 0.872744 0.445397
vt 0.889966 0.445132
f 22/97/22 18/98/18 21/99/21
vt 0.807522 0.456982
vt 0.827680 0.524181
f 18/91/18 16/100/16 64/101/64
vt 0.835430 0.133165
vt 0.820970 0.208919
f 22/102/22 17/75/17 18/103/18
vt 0.542860 0.026536
vt 0.549454 0.014420
vt 0.529894 0.015967
f 19/104/19 21/105/21 18/106/18
vt 0.014991 0.683160
f 20/93/20 23/107/23 59/69/59
vt 0.898003 0.437997
vt 0.877419 0.489704
vt 0.985385 0.479845
f 21/108/21 19/109/19 27/110/27
f 20/76/20 17/75/17 22/102/22
vt 0.886849 0.575723
f 66/111/66 27/110/27 19/109/19
vt 0.956423 0.590156
f 68/112/68 27/110/27 66/111/66
vt 0.859789 0.314459
vt 0.854636 0.392011
vt 0.972439 0.295665
f 20/113/20 22/114/22 23/115/23
vt 0.984505 0.368613
f 21/108/21 27/110/27 26/116/26
f 26/116/26 23/115/23 22/114/22
f 21/108/21 26/116/26 22/114/22
vt 0.385567 0.910033
vt 0.456227 0.972372
vt 0.463113 0.829878
f 37/117/37 38/118/38 24/119/24
vt 0.022499 0.800369
vt 0.078746 0.885251
vt 0.074009 0.720050
f 25/120/25 69/121/69 58/122/58
vt 0.297445 0.876545
vt 0.316648 0.984528
f 29/123/29 40/124/40 37/117/37
vt 0.371764 0.746886
f 37/117/37 24/119/24 25/125/25
vt 0.058815 0.340834
vt 0.012490 0.304575
f 40/126/40 27/127/27 62/8/62
vt 0.075180 0.061648
vt 0.063905 0.114786
vt 0.156763 0.045479
f 23/128/23 28/129/28 58/130/58
vt 0.159128 0.015827
f 59/131/59 23/128/23 58/130/58
vt 0.022361 0.718449
vt 0.011705 0.765829
f 28/132/28 25/133/25 58/122/58
vt 0.304492 0.753106
f 28/134/28 37/117/37 25/125/25
vt 0.023990 0.240639
f 27/127/27 40/126/40 29/135/29
vt 0.026105 0.129262
f 23/128/23 26/136/26 28/129/28
f 26/136/26 29/135/29 28/129/28
vt 0.004672 0.223790
f 27/137/27 29/135/29 26/136/26
f 28/134/28 29/123/29 37/117/37
vt 0.342547 0.436536
vt 0.336398 0.513735
vt 0.378364 0.454834
f 31/138/31 41/139/41 32/140/32
vt 0.932877 0.035075
vt 0.938378 0.020679
vt 0.923303 0.034994
f 33/141/33 41/142/41 34/143/34
vt 0.487680 0.549622
vt 0.558644 0.464943
vt 0.395348 0.534638
f 52/144/52 63/145/63 34/146/34
vt 0.017324 0.919547
vt 0.095796 0.926347
vt 0.028157 0.892328
f 33/147/33 60/148/60 32/149/32
vt 0.457325 0.430302
vt 0.395357 0.455938
f 60/150/60 33/151/33 34/146/34
vt 0.517246 0.358057
f 30/14/30 31/152/31 35/12/35
vt 0.594240 0.868359
vt 0.584105 0.909226
f 35/153/35 32/154/32 36/46/36
vt 0.778690 0.840954
f 31/155/31 30/17/30 42/16/42
vt 0.427634 0.390750
vt 0.426025 0.417875
vt 0.471802 0.417081
f 36/156/36 32/157/32 60/158/60
vt 0.960923 0.028395
vt 0.964252 0.011120
vt 0.946033 0.015912
f 33/159/33 32/160/32 41/161/41
vt 0.567026 0.359883
vt 0.557681 0.314808
f 32/162/32 35/163/35 31/152/31
vt 0.724765 0.845787
f 42/16/42 41/164/41 31/155/31
vt 0.488102 0.379613
f 36/156/36 60/158/60 55/165/55
f 60/150/60 34/146/34 63/145/63
vt 0.602462 0.540189
f 63/145/63 52/144/52 62/166/62
vt 0.589350 0.574555
f 39/167/39 46/10/46 38/9/38
vt 0.062534 0.004469
vt 0.060246 0.009974
vt 0.070064 0.005154
f 37/168/37 40/169/40 38/170/38
f 40/126/40 62/8/62 39/7/39
vt 0.642049 0.589466
f 38/9/38 40/171/40 39/167/39
vt 0.993218 0.594751
f 68/112/68 62/172/62 27/110/27
vt 0.440220 0.210535
vt 0.414575 0.238642
vt 0.424972 0.298493
f 45/173/45 48/174/48 42/175/42
vt 0.437125 0.188005
vt 0.407093 0.102576
vt 0.394258 0.136885
f 45/176/45 49/177/49 51/178/51
f 48/174/48 43/1/43 42/175/42
f 51/178/51 48/174/48 45/176/45
vt 0.981903 0.842169
vt 0.816589 0.894171
vt 0.962605 0.926256
f 48/179/48 44/180/44 43/181/43
f 41/3/41 42/175/42 43/1/43
vt 0.815021 0.794517
f 50/182/50 44/180/44 48/179/48
vt 0.328965 0.058069
f 49/177/49 57/183/57 51/178/51
vt 0.370754 0.678101
vt 0.402488 0.734467
f 46/10/46 43/184/43 44/185/44
vt 0.324756 0.026954
f 49/177/49 53/186/53 57/183/57
vt 0.957672 0.704740
f 51/187/51 50/182/50 48/179/48
vt 0.268177 0.796824
vt 0.234790 0.726960
vt 0.204148 0.883812
f 51/188/51 57/189/57 56/190/56
vt 0.815110 0.709806
vt 0.814794 0.737969
f 56/191/56 50/192/50 51/187/51
vt 0.164991 0.708645
f 58/122/58 57/189/57 54/193/54
vt 0.252650 0.009203
f 57/183/57 53/186/53 54/194/54
f 57/189/57 58/122/58 56/190/56
f 54/194/54 59/131/59 58/130/58
f 56/190/56 58/122/58 69/121/69
vt 0.915430 0.616894
f 66/111/66 65/195/65 68/112/68
vt 0.752726 0.393759
f 55/43/55 67/196/67 61/57/61
vt 0.570111 0.410731
f 67/197/67 60/158/60 63/145/63
vt 0.629262 0.465904
vt 0.647774 0.523913
f 65/198/65 62/166/62 68/199/68
vt 0.900343 0.615981
vt 0.879417 0.610986
f 65/200/65 66/111/66 67/201/67
vt 0.578821 0.430826
vt 0.571124 0.433783
f 65/202/65 67/203/67 63/145/63
vt 0.760418 0.400151
f 67/204/67 64/82/64 61/57/61
vt 0.716223 0.404735
f 67/196/67 55/43/55 60/205/60
vt 0.922673 0.659265
vt 0.887956 0.634147
vt 0.915882 0.668792
f 62/206/62 65/207/65 63/208/63
vt 0.540245 0.002582
vt 0.548401 0.001355
vt 0.536133 0.002492
f 46/209/46 44/210/44 47/211/47
vt 0.042975 0.884365
f 25/120/25 24/212/24 69/121/69
vt 0.384197 0.061240
vt 0.385172 0.061514
vt 0.383834 0.059909
f 38/213/38 47/214/47 24/215/24
vt 0.385621 0.058847
vt 0.384671 0.058903
vt 0.386489 0.059962
f 56/216/56 69/217/69 50/218/50
vt 0.386307 0.060915
f 44/219/44 50/218/50 47/214/47
f 24/215/24 47/214/47 69/217/69
f 47/214/47 50/218/50 69/217/69
# 134 faces, 219 coords texture

# End of File
