####
#
# OBJ File Generated by Meshlab
#
####
# Object muffin_40.obj
#
# Vertices: 22
# Faces: 40
#
####
mtllib ./muffin_40.obj.mtl

vn -0.738941 0.614499 -0.276328
v -5.585276 11.677109 -3.580263 0.231373 0.109804 0.109804
vn 0.480296 0.539325 -0.691697
v 3.012978 11.270304 -5.912795 0.631373 0.439216 0.392157
vn 0.958567 0.247508 -0.141026
v 7.303340 9.402208 -0.639430 0.466667 0.227451 0.156863
vn -0.813043 0.582145 0.008253
v -6.229900 11.676452 0.175421 0.549020 0.337255 0.286275
vn -0.292771 0.724437 0.624081
v -3.846692 11.079708 4.728879 0.482353 0.321569 0.309804
vn -0.447256 0.474968 0.757871
v -1.954104 10.779088 4.858370 0.521569 0.309804 0.282353
vn -0.475763 0.879481 -0.012749
v -3.920092 11.733238 -0.473137 0.439216 0.286275 0.266667
vn 0.800793 -0.594834 -0.070020
v 5.209061 1.608121 -0.192518 0.501961 0.258824 0.184314
vn -0.985831 -0.027422 -0.165483
v -6.766857 7.513833 -1.143097 0.447059 0.239216 0.156863
vn -0.432310 -0.138276 0.891060
v -2.538663 7.207971 5.996822 0.447059 0.200000 0.109804
vn 0.156957 -0.738783 0.655411
v 2.104777 1.347451 4.234951 0.474510 0.258824 0.184314
vn -0.784105 -0.210576 0.583813
v -4.963786 6.797411 4.012528 0.321569 0.129412 0.094118
vn -0.663998 -0.694118 0.278041
v -4.420574 1.210829 0.761519 0.564706 0.337255 0.247059
vn -0.805665 -0.343529 -0.482588
v -5.495183 7.017980 -4.247565 0.521569 0.282353 0.219608
vn -0.337043 0.856257 0.391440
v -2.420850 13.582503 2.159619 0.549020 0.403922 0.376471
vn -0.179757 0.290459 -0.939851
v -1.629052 10.092080 -7.164256 0.458824 0.247059 0.176471
vn 0.612935 -0.133624 -0.778752
v 4.410488 7.272663 -5.749798 0.764706 0.647059 0.592157
vn 0.090375 0.976915 -0.193570
v 2.015577 14.225769 -1.169695 0.682353 0.529412 0.447059
vn 0.041842 0.270104 0.961922
v 1.901554 10.420850 6.882096 0.619608 0.431373 0.364706
vn 0.581772 0.644050 0.496729
v 5.294160 11.214546 4.759305 0.549020 0.411765 0.384314
vn 0.765277 -0.190718 0.614799
v 5.655860 7.226743 4.750935 0.556863 0.356863 0.309804
vn -0.047965 -0.766711 -0.640198
v 0.135907 1.054380 -5.423700 0.403922 0.164706 0.101961
# 22 vertices, 0 vertices normals


usemtl material_0
vt 0.688637 0.659215
vt 0.697256 0.838289
vt 0.798257 0.705597
f 9/1/9 12/2/12 4/3/4
vt 0.791997 0.581466
vt 0.673261 0.566432
f 1/4/1 14/5/14 9/1/9
vt 0.770702 0.612348
vt 0.744213 0.647654
vt 0.774565 0.635929
f 1/6/1 9/7/9 7/8/7
vt 0.867085 0.035436
vt 0.889980 0.066650
vt 0.896278 0.014296
f 7/9/7 9/10/9 4/11/4
vt 0.749143 0.523561
f 16/12/16 14/5/14 1/4/1
vt 0.630853 0.743646
vt 0.608464 0.791641
vt 0.638194 0.841464
f 18/13/18 7/14/7 15/15/15
vt 0.535310 0.078417
vt 0.548348 0.182123
vt 0.558653 0.190638
f 1/16/1 7/17/7 18/18/18
vt 0.643931 0.016472
vt 0.652338 0.107904
f 16/19/16 1/16/1 18/20/18
vt 0.723708 0.049886
f 2/21/2 16/19/16 18/20/18
vt 0.785319 0.343698
vt 0.799463 0.236981
vt 0.767241 0.217226
f 20/22/20 3/23/3 18/24/18
vt 0.728068 0.146315
vt 0.711804 0.179576
vt 0.771420 0.176302
f 2/25/2 18/26/18 3/27/3
vt 0.076371 0.582940
vt 0.044662 0.680769
vt 0.222082 0.630421
f 2/28/2 17/29/17 16/30/16
vt 0.978294 0.599046
vt 0.932294 0.449434
vt 0.899662 0.605603
f 21/31/21 3/32/3 20/33/20
vt 0.859789 0.314459
vt 0.979048 0.331051
f 2/34/2 3/32/3 17/35/17
vt 0.297445 0.876545
vt 0.316648 0.984528
vt 0.442590 0.864200
f 3/36/3 21/37/21 8/38/8
vt 0.325698 0.748657
f 17/39/17 3/36/3 8/38/8
vt 0.342547 0.436536
vt 0.336398 0.513735
vt 0.378364 0.454834
f 5/40/5 12/41/12 6/42/6
vt 0.932877 0.035075
vt 0.938378 0.020679
vt 0.923303 0.034994
f 6/43/6 12/44/12 10/45/10
vt 0.505040 0.441515
vt 0.395357 0.455938
vt 0.395348 0.534638
f 19/46/19 6/47/6 10/48/10
vt 0.462140 0.245395
vt 0.517246 0.358057
vt 0.520316 0.224045
f 4/49/4 5/50/5 7/51/7
vt 0.594240 0.868359
vt 0.584105 0.909226
f 7/52/7 6/53/6 15/15/15
vt 0.778690 0.840954
f 5/54/5 4/3/4 12/2/12
vt 0.459644 0.384965
vt 0.426025 0.417875
vt 0.506783 0.465355
f 15/55/15 6/56/6 19/57/19
vt 0.567026 0.359883
vt 0.557681 0.314808
f 6/58/6 7/59/7 5/50/5
vt 0.589350 0.574555
vt 0.418260 0.601890
vt 0.536098 0.729695
f 19/60/19 10/61/10 11/62/11
vt 0.062534 0.004469
vt 0.060246 0.009974
vt 0.070064 0.005154
f 8/63/8 21/64/21 11/65/11
vt 0.642049 0.589466
f 11/62/11 21/66/21 19/60/19
vt 0.397490 0.120171
vt 0.400563 0.311639
vt 0.437125 0.188005
f 14/67/14 12/68/12 9/69/9
vt 0.981903 0.842169
vt 0.815974 0.838456
vt 0.962605 0.926256
f 12/70/12 13/71/13 10/72/10
vt 0.957672 0.704740
f 14/73/14 13/71/13 12/70/12
vt 0.268177 0.796824
vt 0.206066 0.713985
vt 0.136708 0.881952
f 14/74/14 16/75/16 22/76/22
vt 0.815110 0.709806
vt 0.814794 0.737969
f 22/77/22 13/78/13 14/73/14
vt 0.040583 0.760352
f 16/75/16 17/79/17 22/76/22
vt 0.594007 0.309557
vt 0.752726 0.393759
vt 0.721839 0.206526
f 15/80/15 20/81/20 18/82/18
vt 0.716223 0.404735
f 20/81/20 15/80/15 19/83/19
vt 0.922673 0.659265
vt 0.887956 0.634147
vt 0.915882 0.668792
f 21/84/21 20/85/20 19/86/19
vt 0.540245 0.002582
vt 0.548401 0.001355
vt 0.536133 0.002492
f 10/87/10 13/88/13 11/89/11
vt 0.042975 0.884365
f 17/79/17 8/90/8 22/76/22
vt 0.383834 0.059909
vt 0.384650 0.061424
vt 0.385167 0.058767
f 8/91/8 11/92/11 22/93/22
vt 0.386482 0.060473
f 11/92/11 13/94/13 22/93/22
# 40 faces, 94 coords texture

# End of File
