####
#
# OBJ File Generated by Meshlab
#
####
# Object muffin_12.obj
#
# Vertices: 8
# Faces: 12
#
####
mtllib ./muffin_12.obj.mtl

vn 0.963144 -0.220876 -0.153515
v 6.983174 6.150763 -0.449728 0.501961 0.258824 0.184314
vn 0.349234 -0.800581 0.486934
v 2.104777 1.347451 4.234951 0.474510 0.258824 0.184314
vn -0.727087 -0.361768 0.583497
v -4.954693 3.358922 3.529146 0.564706 0.337255 0.247059
vn -0.857409 0.277558 -0.433372
v -6.122552 10.231801 -3.075430 0.521569 0.282353 0.219608
vn -0.422422 0.810451 0.405868
v -2.059773 13.532861 3.281058 0.549020 0.403922 0.376471
vn 0.384019 0.699620 -0.602545
v 2.160957 12.179472 -5.612596 0.682353 0.529412 0.447059
vn 0.499562 0.352442 0.791342
v 4.635084 10.182857 6.771647 0.556863 0.356863 0.309804
vn -0.035545 -0.738776 -0.673013
v 0.135907 1.054380 -5.423700 0.403922 0.164706 0.101961
# 8 vertices, 0 vertices normals


usemtl material_0
vt 0.630853 0.743646
vt 0.608464 0.791641
vt 0.619973 0.867736
f 6/1/6 4/2/4 5/3/5
vt 0.785319 0.343698
vt 0.799463 0.236981
vt 0.767241 0.217226
f 7/4/7 1/5/1 6/6/6
vt 0.505040 0.441515
vt 0.395357 0.455938
vt 0.395348 0.534638
f 7/7/7 5/8/5 3/9/3
vt 0.778690 0.840954
vt 0.726882 0.602462
vt 0.697256 0.838289
f 5/10/5 4/11/4 3/12/3
vt 0.604217 0.579402
vt 0.418260 0.601890
vt 0.536098 0.729695
f 7/13/7 3/14/3 2/15/2
vt 0.062534 0.004469
vt 0.060246 0.009974
vt 0.070064 0.005154
f 1/16/1 7/17/7 2/18/2
vt 0.268177 0.796824
vt 0.121089 0.732312
vt 0.136708 0.881952
f 4/19/4 6/20/6 8/21/8
vt 0.815110 0.709806
vt 0.814794 0.737969
vt 0.957672 0.704740
f 8/22/8 3/23/3 4/24/4
vt 0.594007 0.309557
vt 0.734384 0.409196
vt 0.721839 0.206526
f 5/25/5 7/26/7 6/27/6
vt 0.042975 0.884365
f 6/20/6 1/28/1 8/21/8
vt 0.383834 0.059909
vt 0.384650 0.061424
vt 0.385167 0.058767
f 1/29/1 2/30/2 8/31/8
vt 0.386482 0.060473
f 2/30/2 3/32/3 8/31/8
# 12 faces, 32 coords texture

# End of File
