####
#
# OBJ File Generated by Meshlab
#
####
# Object cake_206.obj
#
# Vertices: 105
# Faces: 206
#
####
mtllib ./cake_206.obj.mtl

vn 0.002148 -0.999963 -0.008384
v 0.004180 -0.008977 0.004164
vn -0.012489 -0.998743 0.048547
v 0.034670 -0.016554 -0.018640
vn 0.172767 -0.847881 -0.501247
v 0.043210 0.022975 -0.068979
vn 0.175676 -0.878369 -0.444529
v 0.065420 0.025583 -0.054365
vn -0.025712 -0.713797 -0.699881
v 0.010942 0.028031 -0.086094
vn -0.145355 -0.753892 -0.640717
v -0.017973 0.027024 -0.080462
vn 0.682523 -0.647493 0.338991
v 0.076187 0.022736 0.055032
vn 0.385368 -0.878220 0.283235
v 0.077845 0.021444 0.052037
vn 0.409483 0.712108 0.570286
v 0.071085 0.026215 0.061431
vn 0.719345 -0.624292 0.304634
v 0.079220 0.022153 0.048747
vn 0.671491 -0.659794 0.337300
v 0.081083 0.021333 0.044582
vn 0.593666 -0.451925 0.665826
v 0.063707 0.026503 0.068584
vn 0.726091 0.330042 0.603211
v 0.063203 0.026522 0.068957
vn -0.081521 0.965707 0.246503
v 0.067307 0.026360 0.065176
vn 0.757970 -0.609199 0.233150
v 0.084742 0.021873 0.036113
vn 0.629941 -0.743878 0.223203
v 0.086965 0.022636 0.028754
vn 0.781177 -0.579712 0.231726
v 0.090637 0.023922 0.022101
vn 0.876554 -0.425907 0.224181
v 0.091271 0.024418 0.020559
vn 0.503412 -0.603506 0.618350
v 0.065228 0.024178 0.064767
vn 0.951096 -0.228576 0.207773
v 0.091489 0.024584 0.020027
vn 0.452148 -0.638880 0.622411
v 0.060659 0.024105 0.068831
vn 0.541334 -0.840005 0.036736
v 0.090187 0.023620 0.020069
vn 0.446970 -0.867150 0.219702
v 0.071736 0.020930 0.041796
vn 0.428517 -0.893073 -0.137089
v 0.090024 0.024145 -0.010062
vn 0.569875 -0.818588 0.071803
v 0.091883 0.024096 0.007188
vn -0.019187 0.628762 0.777361
v 0.014935 0.028403 0.088330
vn 0.131091 0.178088 0.975243
v 0.015815 0.028368 0.088339
vn -0.784364 -0.581709 0.215377
v -0.077744 0.032013 0.027634
vn 0.193010 -0.380399 0.904458
v 0.020332 0.023640 0.086129
vn -0.521140 0.737125 0.430186
v -0.067535 0.031984 0.051296
vn -0.856649 -0.507675 0.091754
v -0.052469 -0.000282 0.021001
vn -0.724910 -0.602159 0.334530
v -0.046518 -0.014031 0.032332
vn -0.500483 -0.675450 -0.541558
v -0.062847 0.031068 -0.052788
vn 0.043914 -0.998652 -0.027658
v -0.080495 0.032120 -0.023732
vn -0.591873 0.754836 -0.282682
v -0.079555 0.032119 -0.029449
vn -0.997333 0.059603 0.042113
v -0.084589 0.032260 0.012746
vn -0.221739 0.440575 -0.869900
v -0.019251 0.028603 -0.081254
vn -0.353813 -0.535779 -0.766653
v -0.034199 0.029502 -0.075256
vn -0.645688 -0.575642 -0.501720
v -0.068491 0.029861 -0.043297
vn -0.714926 0.059751 -0.696643
v -0.063443 0.031411 -0.052461
vn -0.845679 -0.511276 -0.153046
v -0.080880 0.031670 -0.018263
vn -0.209370 0.884148 -0.417669
v -0.045181 0.030839 -0.071437
vn -0.393648 -0.773858 -0.496171
v -0.042868 0.029292 -0.070769
vn -0.492575 -0.861362 -0.124195
v -0.075240 0.031387 -0.036617
vn 0.179661 -0.695861 0.695341
v 0.030676 0.010242 0.061725
vn 0.180992 -0.661835 0.727472
v 0.017005 -0.015967 0.060113
vn 0.345553 -0.724715 0.596139
v 0.043469 -0.012685 0.047256
vn -0.267276 -0.473414 -0.839311
v -0.016961 0.007445 -0.055502
vn 0.086304 -0.717678 -0.691007
v 0.005556 0.020205 -0.061425
vn -0.567575 -0.559357 -0.604134
v -0.037668 0.014477 -0.046181
vn -0.146689 -0.400568 -0.904449
v 0.003047 -0.012515 -0.060036
vn 0.171591 -0.713988 -0.678806
v 0.022824 -0.013467 -0.057088
vn 0.726906 -0.661623 0.184017
v 0.069617 0.010625 0.017329
vn 0.693529 -0.720355 0.010298
v 0.065160 -0.009819 -0.017043
vn 0.749790 -0.656129 -0.085491
v 0.070592 0.001468 -0.000207
vn 0.658562 -0.606964 -0.444849
v 0.063114 0.011288 -0.029531
vn 0.680316 -0.601879 -0.418224
v 0.058220 -0.015618 -0.032805
vn 0.750710 -0.651868 -0.107251
v 0.064979 -0.013902 0.016366
vn 0.438575 -0.845916 0.303444
v 0.057829 -0.017283 0.031291
vn 0.398146 -0.362580 0.842624
v 0.020433 0.028188 0.087151
vn -0.077059 -0.996018 0.044825
v 0.025685 0.027984 0.085641
vn 0.153329 -0.687550 0.709764
v 0.023955 0.018444 0.081897
vn -0.063350 -0.580098 0.812079
v 0.011945 0.028542 0.090408
vn 0.298598 0.608574 0.735171
v 0.029882 0.027820 0.084418
vn -0.069677 0.972043 0.224228
v -0.010168 0.028745 0.092841
vn 0.288967 0.146470 0.946068
v 0.036561 0.027560 0.082637
vn 0.305733 -0.582341 0.753264
v 0.034956 0.022883 0.081175
vn 0.473666 0.101001 0.874894
v 0.051052 0.026986 0.077020
vn 0.313458 -0.696806 0.645140
v 0.045705 0.023578 0.077408
vn 0.360798 -0.741184 0.566101
v 0.053207 0.021472 0.070461
vn -0.629302 -0.743853 0.225082
v -0.065963 0.019991 0.041095
vn -0.502631 -0.675964 0.538919
v -0.046587 0.016006 0.044291
vn -0.561721 -0.823469 0.079801
v -0.072884 0.024755 0.032686
vn -0.500829 -0.659285 0.560815
v -0.055739 0.025754 0.062905
vn -0.469779 -0.871271 -0.142107
v -0.057465 0.025816 0.017351
vn -0.563538 0.004678 0.826077
v -0.042871 0.026631 0.072458
vn -0.530971 -0.839701 0.113897
v -0.076645 0.025438 0.020963
vn -0.077723 -0.885680 0.457744
v -0.027457 0.022345 0.079899
vn 0.188210 -0.936030 0.297364
v -0.020050 0.027676 0.084487
vn -0.197973 0.041287 0.979337
v -0.011286 0.027844 0.087041
vn 0.829621 0.308546 -0.465327
v 0.081276 0.025448 -0.031565
vn 0.404328 0.914567 0.009253
v 0.094023 0.025198 0.001787
vn 0.635631 -0.312716 -0.705820
v 0.049868 0.004116 -0.043390
vn 0.144995 0.000645 -0.989432
v 0.019509 0.006922 -0.060471
vn 0.406858 -0.585236 -0.701402
v 0.037091 -0.015253 -0.051639
vn 0.386668 -0.301603 -0.871506
v 0.038542 0.008143 -0.051440
vn 0.037871 -0.996562 -0.073693
v 0.027256 -0.016629 0.019378
vn -0.822906 -0.566708 -0.040830
v -0.053363 -0.014710 -0.004595
vn -0.785367 -0.618737 -0.019078
v -0.057188 0.022761 -0.010439
vn -0.767378 -0.533310 -0.355966
v -0.049255 0.011626 -0.029818
vn -0.169728 -0.744194 0.646039
v -0.002707 -0.012724 0.062940
vn -0.359428 -0.732190 0.578541
v -0.025682 -0.014121 0.054996
vn -0.603933 -0.662928 -0.442484
v -0.045545 -0.012540 -0.028126
vn -0.261272 -0.878397 -0.400195
v -0.026159 -0.013588 -0.044161
vn -0.417578 -0.568137 0.709119
v -0.029382 0.014829 0.055373
vn 0.830069 -0.355748 -0.429452
v 0.084815 0.025126 -0.025619
vn -0.063515 -0.733622 0.676583
v -0.002351 0.021000 0.068809
vn -0.102948 -0.741254 0.663283
v 0.002031 0.026657 0.088795
vn -0.472212 -0.878150 -0.076605
v -0.079283 0.027424 -0.009776
vn 0.056250 -0.990484 0.125608
v 0.003802 -0.014391 -0.016717
vn -0.056431 -0.997730 -0.036746
v -0.023002 -0.015704 0.016871
vn 0.134745 0.704723 -0.696569
v 0.067701 0.025056 -0.057753
vn 0.846924 0.234921 0.477003
v 0.073832 0.025891 0.060516
vn 0.493273 -0.856827 -0.150098
v 0.090056 0.024215 -0.015016
vn 0.317351 0.397234 -0.861100
v 0.024596 0.027693 -0.080189
# 105 vertices, 0 vertices normals


usemtl material_0
vt 0.118164 0.213803
vt 0.097643 0.084162
vt 0.151577 0.152972
f 87/1/87 101/2/101 1/3/1
vt 0.204788 0.126046
f 1/3/1 101/2/101 100/4/100
vt 0.001388 0.170269
f 91/5/91 101/2/101 87/1/87
vt 0.003164 0.135570
f 101/2/101 91/5/91 92/6/92
vt 0.055121 0.047577
vt 0.009151 0.108875
f 32/7/32 101/2/101 92/8/92
vt 0.063876 0.271991
vt 0.015581 0.214929
f 87/1/87 47/9/47 46/10/46
f 87/1/87 46/10/46 91/5/91
vt 0.110916 0.297484
f 59/11/59 47/9/47 87/1/87
vt 0.166465 0.162334
vt 0.228007 0.200599
f 87/1/87 1/12/1 2/13/2
vt 0.202820 0.127211
f 100/14/100 2/13/2 1/12/1
vt 0.258753 0.037258
f 100/4/100 101/2/101 94/15/94
vt 0.152110 0.305153
f 87/1/87 58/16/58 59/11/59
f 100/14/100 94/15/94 2/13/2
vt 0.201457 0.298537
f 58/16/58 87/1/87 55/17/55
vt 0.097304 0.005494
f 32/7/32 31/18/31 101/2/101
vt 0.130922 0.004599
f 31/18/31 88/19/88 101/2/101
vt 0.198578 0.003442
f 101/2/101 93/20/93 94/15/94
vt 0.317315 0.145943
f 2/13/2 94/15/94 52/21/52
vt 0.252037 0.273821
f 54/22/54 55/17/55 87/1/87
f 2/13/2 54/22/54 87/1/87
vt 0.155890 0.033339
f 101/2/101 88/23/88 93/20/93
vt 0.313932 0.183167
f 85/24/85 2/13/2 52/21/52
vt 0.278932 0.246687
f 54/22/54 2/13/2 57/25/57
f 85/24/85 57/25/57 2/13/2
vt 0.293198 0.057412
vt 0.313055 0.098307
f 94/15/94 48/26/48 51/27/51
f 52/21/52 94/15/94 51/27/51
vt 0.305084 0.208734
f 57/25/57 85/24/85 83/28/83
vt 0.309410 0.387817
vt 0.317307 0.394175
vt 0.341022 0.425932
f 105/29/105 102/30/102 3/31/3
vt 0.234753 0.431404
f 105/29/105 3/31/3 49/32/49
vt 0.257446 0.362619
f 49/32/49 5/33/5 105/29/105
vt 0.364542 0.429694
vt 0.395593 0.459222
f 3/31/3 102/34/102 4/35/4
vt 0.407157 0.477457
vt 0.328765 0.488007
f 4/36/4 86/37/86 3/31/3
vt 0.231877 0.359553
vt 0.232915 0.355838
f 5/33/5 37/38/37 105/39/105
vt 0.389039 0.542301
vt 0.429859 0.503581
vt 0.433152 0.524505
f 56/40/56 102/41/102 81/42/81
f 102/41/102 56/40/56 4/36/4
vt 0.183344 0.361493
vt 0.223228 0.358799
f 5/33/5 6/43/6 37/44/37
f 86/37/86 49/32/49 3/31/3
vt 0.357567 0.509783
f 83/45/83 4/36/4 56/40/56
f 83/45/83 86/37/86 4/36/4
vt 0.298667 0.467210
f 49/32/49 86/37/86 84/46/84
vt 0.436223 0.544176
f 81/42/81 96/47/96 56/40/56
vt 0.435876 0.565099
f 96/47/96 24/48/24 56/40/56
f 5/33/5 49/32/49 6/43/6
vt 0.412235 0.603289
f 24/48/24 55/49/55 56/40/56
vt 0.160917 0.432586
f 49/32/49 48/50/48 6/43/6
vt 0.140216 0.363027
vt 0.153696 0.356830
f 38/51/38 37/52/37 6/43/6
vt 0.114062 0.372577
f 43/53/43 38/51/38 6/43/6
vt 0.396813 0.577569
f 56/40/56 55/49/55 54/54/54
vt 0.127960 0.365599
f 43/53/43 37/55/37 38/51/38
f 48/50/48 43/53/43 6/43/6
vt 0.113318 0.446334
f 48/50/48 50/56/50 43/53/43
vt 0.080686 0.407712
f 40/57/40 43/53/43 50/56/50
vt 0.091371 0.386774
f 40/57/40 42/58/42 43/53/43
vt 0.414165 0.636895
vt 0.419690 0.624678
f 53/59/53 55/49/55 25/60/25
vt 0.056411 0.420355
vt 0.052343 0.457257
f 33/61/33 40/57/40 90/62/90
f 40/57/40 50/56/50 90/62/90
vt 0.043304 0.433061
f 90/62/90 39/63/39 33/61/33
vt 0.025006 0.461185
vt 0.036136 0.441177
f 44/64/44 39/65/39 90/62/90
vt 0.047265 0.487819
f 44/64/44 90/62/90 89/66/89
vt 0.007865 0.503730
f 99/67/99 44/64/44 89/66/89
vt 0.038626 0.524127
vt 0.032805 0.565187
f 89/68/89 75/69/75 99/67/99
vt 0.001478 0.546544
f 99/67/99 75/69/75 77/70/77
vt 0.011866 0.596433
vt 0.008174 0.584631
f 75/69/75 73/71/73 77/72/77
vt 0.020638 0.615363
f 71/73/71 73/71/73 75/69/75
vt 0.047063 0.623188
f 71/73/71 75/69/75 31/74/31
vt 0.046962 0.639451
f 31/74/31 72/75/72 71/73/71
vt 0.551564 0.203007
vt 0.597894 0.157872
vt 0.590384 0.195139
f 19/76/19 23/77/23 7/78/7
vt 0.512972 0.186722
f 19/76/19 70/79/70 23/77/23
vt 0.617583 0.196694
vt 0.596370 0.189018
f 103/80/103 23/77/23 8/81/8
vt 0.587864 0.208012
f 7/82/7 23/77/23 103/81/103
vt 0.572741 0.198513
vt 0.553337 0.203458
f 103/83/103 19/84/19 7/83/7
vt 0.568220 0.209572
f 9/85/9 19/84/19 103/83/103
vt 0.606871 0.182872
f 8/80/8 23/77/23 10/86/10
f 14/85/14 19/84/19 9/83/9
vt 0.633821 0.171523
vt 0.616666 0.178098
f 23/77/23 15/87/15 11/88/11
f 10/80/10 23/77/23 11/88/11
vt 0.559028 0.231756
vt 0.531623 0.200216
vt 0.539272 0.206310
f 12/89/12 21/90/21 19/91/19
vt 0.524035 0.207585
f 13/92/13 21/90/21 12/91/12
vt 0.660497 0.160951
f 16/93/16 15/87/15 23/77/23
vt 0.685174 0.158114
vt 0.670891 0.152575
f 17/94/17 16/93/16 22/95/22
vt 0.643603 0.165553
vt 0.643396 0.161614
f 15/96/15 16/93/16 103/97/103
vt 0.681854 0.150105
vt 0.677644 0.149213
f 17/94/17 22/98/22 18/99/18
vt 0.538730 0.110823
f 23/77/23 70/79/70 47/100/47
vt 0.707674 0.127005
vt 0.690437 0.144462
f 22/94/22 25/101/25 82/102/82
vt 0.639925 0.095977
f 16/93/16 53/103/53 22/98/22
f 18/94/18 22/98/22 20/99/20
vt 0.682848 0.146397
f 20/94/20 22/98/22 82/104/82
f 21/90/21 70/79/70 19/76/19
vt 0.734165 0.106973
vt 0.727920 0.125127
vt 0.724960 0.112024
f 104/105/104 82/106/82 24/107/24
vt 0.735620 0.096663
f 25/101/25 24/108/24 82/106/82
vt 0.576878 0.100138
f 23/77/23 47/100/47 59/109/59
f 22/98/22 53/103/53 25/101/25
f 16/93/16 23/77/23 53/103/53
vt 0.740539 0.079893
vt 0.752959 0.058978
vt 0.752909 0.074285
f 24/110/24 96/111/96 104/112/104
vt 0.700584 0.096453
f 24/108/24 25/101/25 55/113/55
vt 0.602528 0.094275
f 59/109/59 58/114/58 23/77/23
vt 0.476472 0.126125
f 47/100/47 70/79/70 45/115/45
f 23/77/23 58/114/58 53/103/53
vt 0.480716 0.184198
f 70/79/70 69/116/69 45/115/45
vt 0.450835 0.175468
f 45/115/45 69/116/69 67/117/67
vt 0.430210 0.167802
f 67/117/67 62/118/62 45/115/45
vt 0.411012 0.114749
f 97/119/97 45/115/45 62/118/62
vt 0.384615 0.140492
f 97/119/97 62/118/62 98/120/98
vt 0.401744 0.157475
f 29/121/29 98/120/98 62/118/62
vt 0.354624 0.115691
vt 0.364266 0.127248
f 79/122/79 98/120/98 80/123/80
vt 0.384495 0.099784
f 98/120/98 79/122/79 97/124/97
vt 0.340010 0.089646
f 79/122/79 78/125/78 97/124/97
vt 0.366352 0.061571
f 95/126/95 97/124/97 78/125/78
vt 0.327296 0.032179
f 74/127/74 95/126/95 78/125/78
vt 0.328864 0.057908
f 76/128/76 74/127/74 78/125/78
vt 0.346538 0.016619
f 72/129/72 95/126/95 74/127/74
vt 0.220507 0.700292
vt 0.246890 0.695521
vt 0.235796 0.693457
f 78/130/78 79/131/79 65/132/65
vt 0.202217 0.688746
vt 0.184323 0.693835
vt 0.217430 0.681827
f 65/133/65 76/134/76 78/135/78
vt 0.179656 0.698405
vt 0.142641 0.675317
vt 0.181081 0.681035
f 30/136/30 74/137/74 76/138/76
vt 0.178621 0.682530
f 65/139/65 30/136/30 76/138/76
vt 0.297096 0.728469
vt 0.333883 0.727108
vt 0.323469 0.731946
f 26/140/26 29/141/29 27/142/27
f 29/141/29 26/142/26 98/140/98
vt 0.327629 0.784335
f 27/143/27 29/141/29 60/142/60
vt 0.055433 0.713853
vt 0.058837 0.674703
vt 0.053216 0.685755
f 36/144/36 73/145/73 30/146/30
vt 0.278635 0.702888
vt 0.271510 0.711648
vt 0.267133 0.703114
f 98/147/98 63/148/63 80/149/80
vt 0.032332 0.688221
f 28/144/28 77/150/77 73/145/73
f 36/146/36 28/144/28 73/145/73
vt 0.029826 0.696302
vt 0.042454 0.688463
f 36/151/36 77/150/77 28/152/28
vt 0.078283 0.665941
vt 0.067686 0.674995
f 71/153/71 30/154/30 73/145/73
vt 0.022587 0.687885
vt 0.017349 0.695898
vt 0.015956 0.687810
f 36/155/36 99/156/99 77/157/77
vt 0.081617 0.679350
vt 0.091174 0.662800
f 74/137/74 30/158/30 71/159/71
vt 0.104892 0.660589
f 72/160/72 74/137/74 71/159/71
vt 0.600679 0.447479
vt 0.524767 0.448141
vt 0.604206 0.388147
f 75/161/75 89/162/89 31/163/31
vt 0.635511 0.344533
vt 0.689916 0.406663
f 32/164/32 72/165/72 31/163/31
vt 0.528927 0.354742
f 31/163/31 89/162/89 88/166/88
vt 0.471564 0.410811
f 89/162/89 90/167/90 88/166/88
vt 0.703430 0.369116
f 95/168/95 72/165/72 32/164/32
vt 0.692933 0.330381
f 95/168/95 32/164/32 92/169/92
vt 0.470232 0.363378
f 90/167/90 93/170/93 88/166/88
vt 0.517204 0.688606
vt 0.553737 0.686797
vt 0.537379 0.695766
f 33/171/33 39/172/39 40/173/40
vt 0.562851 0.694512
vt 0.552634 0.705496
f 35/174/35 40/175/40 39/172/39
f 35/175/35 39/172/39 44/174/44
vt 0.594230 0.698760
vt 0.574718 0.701708
vt 0.607423 0.693522
f 35/176/35 44/177/44 34/178/34
vt 0.622251 0.689805
vt 0.613750 0.708412
f 41/179/41 34/180/34 44/177/44
vt 0.617750 0.690799
f 41/179/41 35/181/35 34/180/34
f 35/180/35 41/179/41 36/181/36
vt 0.627749 0.694118
vt 0.643112 0.681324
vt 0.634018 0.689705
f 41/182/41 99/183/99 36/184/36
vt 0.440227 0.684610
vt 0.440354 0.682140
vt 0.436647 0.684786
f 43/185/43 42/186/42 37/187/37
f 44/177/44 99/183/99 41/179/41
vt 0.815990 0.438953
vt 0.753602 0.468794
vt 0.733316 0.387453
f 46/188/46 45/189/45 97/190/97
vt 0.802631 0.382504
f 91/191/91 46/188/46 97/190/97
vt 0.805833 0.511842
f 47/192/47 45/189/45 46/188/46
vt 0.773352 0.318445
f 91/191/91 97/190/97 95/193/95
vt 0.819858 0.331383
f 92/194/92 91/191/91 95/193/95
vt 0.731681 0.656840
vt 0.747922 0.591393
vt 0.758570 0.694192
f 49/195/49 84/196/84 48/197/48
vt 0.800413 0.636590
f 48/197/48 84/196/84 51/198/51
vt 0.806976 0.732299
vt 0.752052 0.765168
f 48/197/48 94/199/94 50/200/50
vt 0.800825 0.585356
f 51/198/51 84/196/84 52/201/52
vt 0.800828 0.784139
f 93/202/93 50/200/50 94/199/94
vt 0.772331 0.801819
f 93/202/93 90/203/90 50/200/50
vt 0.767875 0.563973
f 84/196/84 86/204/86 52/201/52
vt 0.799505 0.564697
f 85/205/85 52/201/52 86/204/86
vt 0.548628 0.520127
vt 0.504461 0.534449
vt 0.502121 0.487964
f 55/206/55 53/207/53 58/208/58
vt 0.599575 0.508676
vt 0.641754 0.486426
vt 0.627463 0.544181
f 54/209/54 57/210/57 56/211/56
vt 0.667624 0.507283
f 56/211/56 57/210/57 83/212/83
vt 0.852891 0.026746
vt 0.866688 0.014250
vt 0.866202 0.028272
f 29/213/29 62/214/62 60/215/60
vt 0.855892 0.039161
f 60/216/60 62/214/62 61/215/61
vt 0.877382 0.022265
vt 0.873352 0.040924
f 63/217/63 61/218/61 62/214/62
vt 0.888329 0.030222
vt 0.897024 0.016626
f 64/219/64 62/214/62 67/220/67
f 63/218/63 62/214/62 64/219/64
f 64/218/64 67/220/67 65/219/65
vt 0.898296 0.028507
vt 0.902632 0.048139
f 66/221/66 65/222/65 67/220/67
vt 0.907749 0.024776
f 66/222/66 67/220/67 68/223/68
f 68/222/68 67/220/67 69/223/69
vt 0.921947 0.027121
vt 0.939131 0.017246
vt 0.938154 0.019899
f 69/224/69 70/225/70 68/226/68
vt 0.952722 0.010126
vt 0.963797 0.010343
vt 0.959754 0.007182
f 70/227/70 21/228/21 68/229/68
vt 0.956086 0.022681
vt 0.969848 0.016946
f 68/230/68 21/228/21 13/231/13
vt 0.445637 0.811539
vt 0.444546 0.812189
vt 0.445579 0.804847
f 81/232/81 102/233/102 82/234/82
vt 0.463261 0.810908
vt 0.455065 0.809925
vt 0.458850 0.797713
f 96/235/96 82/236/82 104/237/104
vt 0.455031 0.809913
f 81/238/81 82/236/82 96/235/96
vt 0.964933 0.840928
vt 0.929205 0.870121
vt 0.928567 0.826619
f 83/239/83 85/240/85 86/241/86
vt -0.000000 0.000000
f 105/242/105 37/242/37 42/242/42
f 102/242/102 105/242/105 42/242/42
f 102/242/102 42/242/42 30/242/30
f 30/242/30 42/242/42 40/242/40
f 36/242/36 30/242/30 40/242/40
f 36/242/36 40/242/40 35/242/35
f 30/242/30 82/242/82 102/242/102
f 30/242/30 65/242/65 82/242/82
f 68/242/68 82/242/82 65/242/65
f 65/242/65 63/242/63 64/242/64
f 79/242/79 63/242/63 65/242/65
f 80/242/80 63/242/63 79/242/79
f 98/242/98 60/242/60 63/242/63
f 60/242/60 98/242/98 26/242/26
f 27/242/27 60/242/60 26/242/26
f 61/242/61 63/242/63 60/242/60
f 66/242/66 68/242/68 65/242/65
f 13/242/13 82/242/82 68/242/68
f 19/242/19 82/242/82 13/242/13
f 19/242/19 13/242/13 12/242/12
f 19/242/19 14/242/14 82/242/82
f 82/242/82 14/242/14 9/242/9
f 9/242/9 103/242/103 82/242/82
f 20/242/20 82/242/82 103/242/103
f 18/242/18 20/242/20 103/242/103
f 17/242/17 18/242/18 103/242/103
f 103/242/103 16/242/16 17/242/17
f 11/242/11 15/242/15 103/242/103
f 10/242/10 11/242/11 103/242/103
f 103/242/103 8/242/8 10/242/10
# 206 faces, 242 coords texture

# End of File
