####
#
# OBJ File Generated by Meshlab
#
####
# Object cake_248.obj
#
# Vertices: 126
# Faces: 248
#
####
mtllib ./cake_248.obj.mtl

vn 0.002148 -0.999963 -0.008384
v 0.004180 -0.008977 0.004164
vn -0.012489 -0.998743 0.048547
v 0.034670 -0.016554 -0.018640
vn 0.048541 -0.994708 -0.090552
v 0.064600 0.025425 -0.056810
vn 0.187555 -0.857339 -0.479368
v 0.043210 0.022975 -0.068979
vn 0.225971 -0.845789 -0.483300
v 0.068939 0.023975 -0.050155
vn 0.016661 -0.889891 -0.455868
v 0.010942 0.028031 -0.086094
vn -0.108292 -0.787011 -0.607360
v -0.017973 0.027024 -0.080462
vn 0.734377 -0.610419 0.296781
v 0.076187 0.022736 0.055032
vn 0.385368 -0.878220 0.283235
v 0.077845 0.021444 0.052037
vn 0.446544 0.577281 0.683627
v 0.071085 0.026215 0.061431
vn 0.719345 -0.624292 0.304634
v 0.079220 0.022153 0.048747
vn 0.686940 -0.638357 0.347295
v 0.081083 0.021333 0.044582
vn 0.625409 -0.087139 0.775416
v 0.063707 0.026503 0.068584
vn 0.628672 0.427867 0.649386
v 0.065037 0.026451 0.067400
vn 0.402426 0.743600 0.533958
v 0.063203 0.026522 0.068957
vn 0.644881 0.421470 0.637568
v 0.067307 0.026360 0.065176
vn 0.573825 -0.798523 0.181895
v 0.083082 0.021459 0.039546
vn 0.650338 -0.724663 0.227869
v 0.084103 0.021756 0.037542
vn 0.929766 -0.198040 0.310348
v 0.085743 0.022041 0.033715
vn 0.478908 -0.867408 0.135099
v 0.086965 0.022636 0.028754
vn 0.781177 -0.579712 0.231726
v 0.090637 0.023922 0.022101
vn 0.876554 -0.425907 0.224181
v 0.091271 0.024418 0.020559
vn 0.407186 -0.734447 0.542943
v 0.064763 0.022441 0.063241
vn 0.951406 -0.228660 0.206253
v 0.091489 0.024584 0.020027
vn 0.461070 -0.622865 0.632024
v 0.060659 0.024105 0.068831
vn 0.260194 -0.965306 -0.021985
v 0.092132 0.024753 0.001019
vn 0.540717 -0.840409 0.036561
v 0.090187 0.023620 0.020069
vn 0.440193 -0.873298 0.208761
v 0.071736 0.020930 0.041796
vn 0.305790 -0.949457 -0.070881
v 0.090024 0.024145 -0.010062
vn 0.601187 -0.791398 -0.110744
v 0.091031 0.024159 -0.010766
vn 0.468449 -0.882717 -0.036968
v 0.091883 0.024096 0.007188
vn -0.395477 -0.191556 0.898279
v -0.027772 0.027860 0.081619
vn -0.269035 0.776643 0.569602
v -0.037903 0.030456 0.077014
vn -0.035473 0.636184 0.770722
v 0.014935 0.028403 0.088330
vn 0.131429 0.221708 0.966215
v 0.015815 0.028368 0.088339
vn 0.025778 -0.649510 0.759916
v -0.005244 0.029189 0.087834
vn -0.796622 -0.576764 0.180934
v -0.077744 0.032013 0.027634
vn 0.425025 -0.161421 0.890672
v 0.020458 0.027235 0.087149
vn -0.469458 0.787705 0.398911
v -0.067090 0.031710 0.051800
vn -0.458419 -0.855677 0.240142
v -0.069110 0.032474 0.047817
vn -0.896528 -0.419610 0.142005
v -0.052924 0.014297 0.028067
vn -0.805789 -0.579513 0.121941
v -0.056193 -0.012708 0.011957
vn -0.672759 -0.566915 0.475398
v -0.046518 -0.014031 0.032332
vn -0.500483 -0.675450 -0.541558
v -0.062847 0.031068 -0.052788
vn -0.760739 0.247021 -0.600214
v -0.073041 0.031830 -0.039431
vn -0.059668 -0.997388 -0.040706
v -0.080495 0.032120 -0.023732
vn -0.768719 0.532090 -0.354896
v -0.079555 0.032119 -0.029449
vn -0.381841 -0.221760 -0.897229
v -0.039346 0.030270 -0.074239
vn -0.993218 -0.087919 0.076084
v -0.084589 0.032260 0.012746
vn -0.278575 -0.785879 -0.552078
v -0.039246 0.030014 -0.074025
vn -0.287182 0.052377 -0.956443
v -0.007680 0.028416 -0.084903
vn -0.270577 -0.736314 -0.620186
v -0.034199 0.029502 -0.075256
vn -0.601471 -0.654792 -0.457689
v -0.068491 0.029861 -0.043297
vn -0.719307 -0.207231 -0.663063
v -0.063443 0.031411 -0.052461
vn -0.856467 -0.494221 -0.149031
v -0.080880 0.031670 -0.018263
vn -0.294000 0.782625 -0.548692
v -0.045181 0.030839 -0.071437
vn -0.353332 -0.796625 -0.490454
v -0.042868 0.029292 -0.070769
vn -0.599646 -0.761647 -0.245599
v -0.075661 0.031211 -0.035565
vn 0.236216 -0.640295 0.730906
v 0.030676 0.010242 0.061725
vn 0.094062 -0.665761 0.740212
v 0.017005 -0.015967 0.060113
vn 0.496710 -0.716904 0.489212
v 0.037781 -0.018092 0.051348
vn 0.476561 -0.669729 0.569520
v 0.046294 -0.009335 0.046591
vn 0.052459 -0.658827 -0.750463
v -0.002429 0.019786 -0.060322
vn -0.243297 -0.471604 -0.847583
v -0.016961 0.007445 -0.055502
vn -0.487316 -0.761807 -0.426818
v -0.043096 0.016507 -0.041903
vn 0.084955 -0.687783 -0.720928
v 0.020471 0.018810 -0.060096
vn -0.580178 -0.568037 -0.583719
v -0.033387 0.012222 -0.047866
vn -0.146689 -0.400568 -0.904449
v 0.003047 -0.012515 -0.060036
vn 0.171591 -0.713988 -0.678806
v 0.022824 -0.013467 -0.057088
vn 0.807594 -0.578036 -0.116903
v 0.074297 0.015065 -0.001987
vn 0.766947 -0.626202 0.140224
v 0.069617 0.010625 0.017329
vn 0.688752 -0.705338 -0.167686
v 0.065160 -0.009819 -0.017043
vn 0.767912 -0.640555 -0.000931
v 0.069980 -0.011733 0.001864
vn 0.737009 -0.560045 -0.378376
v 0.063114 0.011288 -0.029531
vn 0.680316 -0.601879 -0.418224
v 0.058220 -0.015618 -0.032805
vn 0.723857 -0.686230 0.071549
v 0.064979 -0.013902 0.016366
vn 0.421222 -0.833914 0.356593
v 0.057829 -0.017283 0.031291
vn 0.051459 -0.279616 0.958732
v 0.018446 0.025884 0.087278
vn 0.223764 -0.327059 0.918129
v 0.017636 0.020909 0.085994
vn 0.327958 -0.163409 0.930452
v 0.020433 0.028188 0.087151
vn -0.077059 -0.996018 0.044825
v 0.025685 0.027984 0.085641
vn 0.205494 -0.676368 0.707318
v 0.023955 0.018444 0.081897
vn -0.096262 0.927995 -0.359942
v 0.011945 0.028542 0.090408
vn 0.264636 0.287018 0.920646
v 0.029882 0.027820 0.084418
vn 0.194580 0.767733 0.610511
v 0.033607 0.027675 0.083512
vn 0.324674 0.134219 0.936254
v 0.036561 0.027560 0.082637
vn 0.282636 -0.531861 0.798274
v 0.034956 0.022883 0.081175
vn 0.458007 0.315844 0.830947
v 0.051052 0.026986 0.077020
vn 0.313458 -0.696806 0.645140
v 0.045705 0.023578 0.077408
vn 0.345485 -0.752447 0.560771
v 0.053207 0.021472 0.070461
vn -0.473347 -0.877113 0.081341
v -0.065963 0.019991 0.041095
vn -0.498447 -0.732703 0.463354
v -0.046587 0.016006 0.044291
vn -0.546334 -0.833078 0.086603
v -0.072884 0.024755 0.032686
vn -0.530419 -0.696472 0.483305
v -0.055739 0.025754 0.062905
vn -0.327455 -0.936400 -0.126205
v -0.057465 0.025816 0.017351
vn -0.551531 -0.823014 0.135876
v -0.074700 0.024634 0.025044
vn -0.572509 -0.178120 0.800317
v -0.042871 0.026631 0.072458
vn -0.413430 -0.910448 -0.012653
v -0.079335 0.026734 0.014174
vn -0.265274 -0.707898 0.654607
v -0.028391 0.019064 0.076687
vn -0.211293 -0.210176 0.954558
v -0.020050 0.027676 0.084487
vn -0.239212 0.091432 0.966653
v -0.011286 0.027844 0.087041
vn 0.829825 0.305677 -0.466852
v 0.081276 0.025448 -0.031565
vn 0.336591 0.941443 -0.019784
v 0.094097 0.025174 0.000453
vn 0.637301 -0.320856 -0.700642
v 0.049868 0.004116 -0.043390
vn 0.128287 -0.055685 -0.990173
v 0.019509 0.006922 -0.060471
vn 0.406858 -0.585236 -0.701402
v 0.037091 -0.015253 -0.051639
vn 0.377275 -0.343069 -0.860214
v 0.038542 0.008143 -0.051440
vn 0.028307 -0.996967 -0.072494
v 0.027256 -0.016629 0.019378
vn -0.756370 -0.623918 -0.196548
v -0.053363 -0.014710 -0.004595
vn -0.830262 -0.556514 -0.030943
v -0.057188 0.022761 -0.010439
vn -0.726472 -0.552159 -0.409095
v -0.049255 0.011626 -0.029818
vn -0.169728 -0.744194 0.646039
v -0.002707 -0.012724 0.062940
vn -0.359428 -0.732190 0.578541
v -0.025682 -0.014121 0.054996
vn -0.594026 -0.658071 -0.462683
v -0.045545 -0.012540 -0.028126
vn -0.262694 -0.876970 -0.402387
v -0.026159 -0.013588 -0.044161
vn -0.423734 -0.586592 0.690187
v -0.029382 0.014829 0.055373
vn 0.907350 0.034702 -0.418942
v 0.084815 0.025126 -0.025619
vn -0.054465 -0.741883 0.668313
v -0.002351 0.021000 0.068809
vn -0.117823 -0.540390 0.833125
v 0.004057 0.025912 0.088624
vn -0.494793 -0.865898 -0.073484
v -0.079283 0.027424 -0.009776
vn 0.056250 -0.990484 0.125608
v 0.003802 -0.014391 -0.016717
vn 0.008125 -0.999865 -0.014273
v -0.023002 -0.015704 0.016871
vn 0.013467 0.919324 -0.393271
v 0.067701 0.025056 -0.057753
vn 0.864147 0.162500 0.476281
v 0.073832 0.025891 0.060516
vn -0.018898 -0.998418 -0.052961
v 0.088661 0.024791 -0.022357
vn 0.339583 0.409862 -0.846579
v 0.024596 0.027693 -0.080189
# 126 vertices, 0 vertices normals


usemtl material_0
vt 0.118164 0.213803
vt 0.097643 0.084162
vt 0.151577 0.152972
f 108/1/108 122/2/122 1/3/1
vt 0.204788 0.126046
f 1/3/1 122/2/122 121/4/121
vt 0.001388 0.170269
f 112/5/112 122/2/122 108/1/108
vt 0.003164 0.135570
f 122/2/122 112/5/112 113/6/113
vt 0.055121 0.047577
vt 0.009151 0.108875
f 43/7/43 122/2/122 113/8/113
vt 0.047044 0.258255
vt 0.015581 0.214929
f 108/1/108 61/9/61 60/10/60
f 108/1/108 60/10/60 112/5/112
vt 0.073566 0.280322
f 62/11/62 61/9/61 108/1/108
vt 0.110916 0.297484
f 77/12/77 62/11/62 108/1/108
vt 0.166465 0.162334
vt 0.228007 0.200599
f 108/1/108 1/13/1 2/14/2
vt 0.202820 0.127211
f 121/15/121 2/14/2 1/13/1
vt 0.258753 0.037258
f 121/4/121 122/2/122 115/16/115
vt 0.152110 0.305153
f 108/1/108 76/17/76 77/12/77
f 121/15/121 115/16/115 2/14/2
vt 0.201457 0.298537
f 76/17/76 108/1/108 73/18/73
vt 0.097304 0.005494
f 43/7/43 42/19/42 122/2/122
vt 0.130922 0.004599
f 42/19/42 109/20/109 122/2/122
vt 0.198578 0.003442
f 122/2/122 114/21/114 115/16/115
vt 0.317315 0.145943
f 2/14/2 115/16/115 69/22/69
vt 0.252037 0.273821
f 72/23/72 73/18/73 108/1/108
f 2/14/2 72/23/72 108/1/108
vt 0.155890 0.033339
f 122/2/122 109/24/109 114/21/114
vt 0.313932 0.183167
f 106/25/106 2/14/2 69/22/69
vt 0.278932 0.246687
f 72/23/72 2/14/2 75/26/75
f 106/25/106 75/26/75 2/14/2
vt 0.293198 0.057412
vt 0.313055 0.098307
f 115/16/115 64/27/64 68/28/68
f 69/22/69 115/16/115 68/28/68
vt 0.305084 0.208734
f 75/26/75 106/25/106 104/29/104
vt 0.309410 0.387817
vt 0.317307 0.394175
vt 0.341022 0.425932
f 126/30/126 123/31/123 4/32/4
vt 0.276043 0.440977
f 126/30/126 4/32/4 66/33/66
vt 0.257446 0.362619
f 66/33/66 6/34/6 126/30/126
vt 0.364542 0.429694
vt 0.386234 0.447137
f 4/32/4 123/35/123 3/36/3
vt 0.406202 0.480777
f 5/37/5 4/32/4 3/36/3
vt 0.411194 0.477904
vt 0.413934 0.485290
f 5/37/5 3/38/3 123/39/123
vt 0.328765 0.488007
f 5/37/5 107/40/107 4/32/4
vt 0.231877 0.359553
vt 0.232915 0.355838
f 6/34/6 51/41/51 126/42/126
vt 0.389039 0.542301
vt 0.429859 0.503581
vt 0.433152 0.524505
f 74/43/74 123/44/123 102/45/102
f 123/44/123 74/43/74 5/37/5
vt 0.183344 0.361493
vt 0.223228 0.358799
f 6/34/6 7/46/7 51/47/51
f 107/40/107 66/33/66 4/32/4
vt 0.357567 0.509783
f 104/48/104 5/37/5 74/43/74
f 104/48/104 107/40/107 5/37/5
vt 0.298667 0.467210
f 66/33/66 107/40/107 105/49/105
vt 0.209519 0.429925
f 63/50/63 6/34/6 66/33/66
vt 0.436223 0.544176
f 102/45/102 117/51/117 74/43/74
vt 0.435876 0.565099
f 117/51/117 29/52/29 74/43/74
vt 0.237878 0.437464
f 63/50/63 66/33/66 105/53/105
f 6/34/6 63/50/63 7/46/7
vt 0.412235 0.603289
f 29/52/29 70/54/70 74/43/74
vt 0.160917 0.432586
f 63/50/63 64/55/64 7/46/7
vt 0.140216 0.363027
vt 0.153696 0.356830
f 52/56/52 51/57/51 7/46/7
vt 0.114062 0.372577
f 57/58/57 52/56/52 7/46/7
vt 0.396813 0.577569
f 74/43/74 70/54/70 72/59/72
vt 0.127960 0.365599
f 57/58/57 50/60/50 52/56/52
f 64/55/64 57/58/57 7/46/7
vt 0.122691 0.443405
f 64/55/64 67/61/67 57/58/57
vt 0.080686 0.407712
f 54/62/54 57/58/57 67/61/67
vt 0.091371 0.386774
f 54/62/54 56/63/56 57/58/57
vt 0.414165 0.636895
vt 0.419690 0.624678
f 71/64/71 70/54/70 31/65/31
vt 0.090553 0.452835
f 65/66/65 54/62/54 67/61/67
vt 0.056411 0.420355
vt 0.052343 0.457257
f 44/67/44 54/62/54 111/68/111
f 54/62/54 65/66/65 111/68/111
vt 0.043304 0.433061
f 111/68/111 53/69/53 44/67/44
vt 0.025006 0.461185
vt 0.036136 0.441177
f 58/70/58 53/71/53 111/68/111
vt 0.047265 0.487819
f 58/70/58 111/68/111 110/72/110
vt 0.007865 0.503730
f 120/73/120 58/70/58 110/72/110
vt 0.038626 0.524127
vt 0.032805 0.565187
f 110/74/110 95/75/95 120/73/120
vt 0.001444 0.535370
f 120/73/120 95/75/95 98/76/98
vt 0.001401 0.553258
f 98/76/98 95/75/95 96/77/96
vt 0.011866 0.596433
vt 0.008174 0.584631
f 95/75/95 93/78/93 96/79/96
vt 0.020638 0.615363
f 91/80/91 93/78/93 95/75/95
vt 0.047063 0.623188
f 91/80/91 95/75/95 41/81/41
vt 0.046962 0.639451
f 41/81/41 92/82/92 91/80/91
vt 0.552714 0.198668
vt 0.597894 0.157872
vt 0.590384 0.195139
f 23/83/23 28/84/28 8/85/8
vt 0.512972 0.186722
f 23/83/23 90/86/90 28/84/28
vt 0.617583 0.196694
vt 0.596370 0.189018
f 124/87/124 28/84/28 9/88/9
vt 0.587864 0.208012
f 8/89/8 28/84/28 124/88/124
vt 0.572741 0.198513
vt 0.553337 0.203458
f 124/90/124 23/91/23 8/90/8
vt 0.568220 0.209572
f 10/92/10 23/91/23 124/90/124
vt 0.606871 0.182872
f 9/87/9 28/84/28 11/93/11
f 16/92/16 23/91/23 10/90/10
vt 0.631242 0.176019
vt 0.616666 0.178098
f 28/84/28 17/94/17 12/95/12
f 11/87/11 28/84/28 12/95/12
vt 0.559028 0.231756
vt 0.531623 0.200216
vt 0.539272 0.206310
f 13/96/13 25/97/25 14/98/14
vt 0.524035 0.207585
f 15/99/15 25/97/25 13/98/13
vt 0.550326 0.207489
vt 0.541948 0.197690
f 14/100/14 23/83/23 16/101/16
f 25/97/25 23/83/23 14/100/14
vt 0.632285 0.176519
vt 0.660497 0.160951
vt 0.636338 0.166716
f 18/102/18 20/103/20 19/104/19
f 17/94/17 20/103/20 18/104/18
f 20/103/20 17/94/17 28/84/28
vt 0.685174 0.158114
vt 0.670891 0.152575
f 21/105/21 20/103/20 27/106/27
vt 0.643603 0.165553
vt 0.643396 0.161614
f 19/107/19 20/103/20 124/108/124
vt 0.681854 0.150105
vt 0.677644 0.149213
f 21/105/21 27/109/27 22/110/22
vt 0.538730 0.110823
f 28/84/28 90/86/90 62/111/62
vt 0.707674 0.127005
vt 0.690437 0.144462
f 27/105/27 31/112/31 103/113/103
vt 0.639925 0.095977
f 20/103/20 71/114/71 27/109/27
f 22/105/22 27/109/27 24/110/24
vt 0.682848 0.146397
f 24/105/24 27/109/27 103/115/103
f 25/97/25 90/86/90 23/83/23
vt 0.734165 0.106973
vt 0.725860 0.121750
vt 0.724960 0.112024
f 30/116/30 26/117/26 29/118/29
vt 0.728287 0.125676
f 103/119/103 26/117/26 30/118/30
vt 0.735620 0.096663
f 31/112/31 29/120/29 26/117/26
vt 0.576878 0.100138
f 28/84/28 62/111/62 77/121/77
f 27/109/27 71/114/71 31/112/31
f 20/103/20 28/84/28 71/114/71
vt 0.746985 0.091480
vt 0.740539 0.079893
vt 0.745808 0.079917
f 30/122/30 29/123/29 125/124/125
vt 0.752959 0.058978
vt 0.752909 0.074285
f 29/123/29 117/125/117 125/126/125
vt 0.700584 0.096453
f 29/120/29 31/112/31 70/127/70
vt 0.602528 0.094275
f 77/121/77 76/128/76 28/84/28
vt 0.476472 0.126125
f 62/111/62 90/86/90 59/129/59
f 28/84/28 76/128/76 71/114/71
vt 0.480716 0.184198
f 90/86/90 89/130/89 59/129/59
vt 0.756430 0.055932
vt 0.766482 0.057831
f 117/125/117 30/131/30 125/132/125
vt 0.450835 0.175468
f 59/129/59 89/130/89 87/133/87
vt 0.430210 0.167802
f 87/133/87 82/134/82 59/129/59
vt 0.411012 0.114749
f 118/135/118 59/129/59 82/134/82
vt 0.384615 0.140492
f 118/135/118 82/134/82 119/136/119
vt 0.399233 0.155677
vt 0.406473 0.161309
f 78/137/78 82/134/82 79/138/79
f 78/137/78 119/136/119 82/134/82
vt 0.354624 0.115691
vt 0.364266 0.127248
f 100/139/100 119/136/119 101/140/101
vt 0.384495 0.099784
f 119/136/119 100/139/100 118/141/118
vt 0.340010 0.089646
f 100/139/100 99/142/99 118/141/118
vt 0.366352 0.061571
f 116/143/116 118/141/118 99/142/99
vt 0.327296 0.032179
f 94/144/94 116/143/116 99/142/99
vt 0.328864 0.057908
f 97/145/97 94/144/94 99/142/99
vt 0.346538 0.016619
f 92/146/92 116/143/116 94/144/94
vt 0.179656 0.698405
vt 0.211092 0.674695
vt 0.202217 0.688746
f 33/147/33 99/148/99 32/149/32
vt 0.220507 0.700292
vt 0.246890 0.695521
vt 0.235796 0.693457
f 32/150/32 100/151/100 33/152/33
vt 0.184323 0.693835
f 33/149/33 97/153/97 99/148/99
vt 0.227033 0.695764
f 32/154/32 99/148/99 100/151/100
vt 0.142641 0.675317
vt 0.181081 0.681035
f 39/147/39 94/155/94 97/156/97
vt 0.178621 0.682530
f 33/157/33 39/147/39 97/156/97
vt 0.290493 0.708305
vt 0.267133 0.703114
vt 0.294795 0.708269
f 36/158/36 101/159/101 119/160/119
vt 0.297096 0.728469
vt 0.331164 0.731500
vt 0.323469 0.731946
f 34/161/34 78/162/78 35/163/35
vt 0.112879 0.676300
vt 0.092705 0.681827
f 39/164/39 40/165/40 94/155/94
f 78/162/78 34/163/34 119/161/119
vt 0.327629 0.784335
f 35/166/35 78/162/78 80/163/80
vt 0.055433 0.713853
vt 0.058837 0.674703
vt 0.053216 0.685755
f 49/167/49 93/168/93 39/169/39
vt 0.278635 0.702888
vt 0.271510 0.711648
f 36/170/36 83/171/83 101/159/101
vt 0.079194 0.678158
vt 0.067260 0.683305
f 40/165/40 39/172/39 91/173/91
vt 0.037064 0.676395
f 37/167/37 96/174/96 93/168/93
f 49/169/49 37/167/37 93/168/93
vt 0.029826 0.696302
vt 0.042454 0.688463
f 49/175/49 96/174/96 37/176/37
vt 0.337061 0.719416
vt 0.339074 0.727510
f 79/177/79 38/178/38 78/162/78
f 49/176/49 98/175/98 96/174/96
vt 0.078283 0.665941
vt 0.067686 0.674995
f 91/179/91 39/180/39 93/168/93
vt 0.022587 0.687885
vt 0.017349 0.695898
vt 0.015956 0.687810
f 49/181/49 120/182/120 98/183/98
vt 0.091174 0.662800
f 94/155/94 40/165/40 91/184/91
vt 0.104892 0.660589
f 92/185/92 94/155/94 91/184/91
vt 0.600679 0.447479
vt 0.524767 0.448141
vt 0.627956 0.416274
f 95/186/95 110/187/110 41/188/41
vt 0.579072 0.361569
f 41/188/41 110/187/110 42/189/42
vt 0.635511 0.344533
vt 0.689916 0.406663
f 43/190/43 92/191/92 41/188/41
f 43/190/43 41/188/41 42/189/42
vt 0.528927 0.354742
f 42/189/42 110/187/110 109/192/109
vt 0.471564 0.410811
f 110/187/110 111/193/111 109/192/109
vt 0.703430 0.369116
f 116/194/116 92/191/92 43/190/43
vt 0.692933 0.330381
f 116/194/116 43/190/43 113/195/113
vt 0.470232 0.363378
f 111/193/111 114/196/114 109/192/109
vt 0.517204 0.688606
vt 0.553737 0.686797
vt 0.537379 0.695766
f 44/197/44 53/198/53 54/199/54
vt 0.562851 0.694512
vt 0.552634 0.705496
f 47/200/47 54/201/54 53/198/53
f 47/201/47 53/198/53 45/200/45
vt 0.577013 0.699172
vt 0.572211 0.705288
f 58/202/58 45/203/45 53/198/53
vt 0.594230 0.698760
vt 0.607423 0.693522
f 47/204/47 58/202/58 46/205/46
vt 0.622251 0.689805
vt 0.613750 0.708412
f 55/206/55 46/207/46 58/202/58
vt 0.617750 0.690799
f 55/206/55 47/208/47 46/207/46
f 47/207/47 55/206/55 49/208/49
vt 0.627749 0.694118
vt 0.643112 0.681324
vt 0.634018 0.689705
f 55/209/55 120/210/120 49/211/49
vt 0.428925 0.686441
vt 0.435932 0.681162
vt 0.435617 0.681898
f 51/212/51 50/213/50 48/214/48
vt 0.440354 0.682140
vt 0.437947 0.689745
f 56/215/56 48/216/48 50/213/50
vt 0.440227 0.684610
f 57/217/57 56/215/56 50/213/50
vt 0.430764 0.681870
vt 0.432430 0.678640
f 51/212/51 52/218/52 50/219/50
f 58/202/58 120/210/120 55/206/55
vt 0.815990 0.438953
vt 0.753602 0.468794
vt 0.733316 0.387453
f 60/220/60 59/221/59 118/222/118
vt 0.802631 0.382504
f 112/223/112 60/220/60 118/222/118
vt 0.819549 0.494161
f 61/224/61 59/221/59 60/220/60
vt 0.792269 0.528569
f 61/224/61 62/225/62 59/221/59
vt 0.773352 0.318445
f 112/223/112 118/222/118 116/226/116
vt 0.819858 0.331383
f 113/227/113 112/223/112 116/226/116
vt 0.731681 0.656840
vt 0.747922 0.591393
vt 0.758570 0.694192
f 63/228/63 105/229/105 64/230/64
vt 0.800413 0.636590
f 64/230/64 105/229/105 68/231/68
vt 0.806976 0.732299
vt 0.753561 0.747864
f 64/230/64 115/232/115 67/233/67
vt 0.800825 0.585356
f 68/231/68 105/229/105 69/234/69
vt 0.800828 0.784139
f 114/235/114 67/233/67 115/232/115
vt 0.751750 0.785816
vt 0.772331 0.801819
f 65/236/65 67/233/67 111/237/111
f 114/235/114 111/237/111 67/233/67
vt 0.767875 0.563973
f 105/229/105 107/238/107 69/234/69
vt 0.799505 0.564697
f 106/239/106 69/234/69 107/238/107
vt 0.548717 0.546581
vt 0.547795 0.494395
vt 0.599575 0.508676
f 70/240/70 73/241/73 72/242/72
vt 0.504461 0.534449
f 71/243/71 73/241/73 70/240/70
vt 0.502121 0.487964
f 73/241/73 71/243/71 76/244/76
vt 0.641754 0.486426
vt 0.627463 0.544181
f 72/242/72 75/245/75 74/246/74
vt 0.667624 0.507283
f 74/246/74 75/245/75 104/247/104
vt 0.856599 0.034672
vt 0.847944 0.017921
vt 0.866688 0.014250
f 38/248/38 79/249/79 82/250/82
vt 0.866202 0.028272
f 38/248/38 82/250/82 80/251/80
vt 0.855892 0.039161
f 80/252/80 82/250/82 81/251/81
vt 0.877382 0.022265
vt 0.873352 0.040924
f 83/253/83 81/254/81 82/250/82
vt 0.888329 0.030222
vt 0.897024 0.016626
f 84/255/84 82/250/82 87/256/87
f 83/254/83 82/250/82 84/255/84
f 84/254/84 87/256/87 85/255/85
vt 0.898296 0.028507
vt 0.902632 0.048139
f 86/257/86 85/258/85 87/256/87
vt 0.907749 0.024776
f 86/258/86 87/256/87 88/259/88
f 88/258/88 87/256/87 89/259/89
vt 0.921947 0.027121
vt 0.939131 0.017246
vt 0.938154 0.019899
f 89/260/89 90/261/90 88/262/88
vt 0.952722 0.010126
vt 0.963797 0.010343
vt 0.959754 0.007182
f 90/263/90 25/264/25 88/265/88
vt 0.956086 0.022681
vt 0.969848 0.016946
f 88/266/88 25/264/25 15/267/15
vt 0.445637 0.811539
vt 0.444546 0.812189
vt 0.445579 0.804847
f 102/268/102 123/269/123 103/270/103
vt 0.463261 0.810908
vt 0.455065 0.809925
vt 0.458850 0.797713
f 117/271/117 103/272/103 30/273/30
vt 0.455031 0.809913
f 102/274/102 103/272/103 117/271/117
vt 0.964933 0.840928
vt 0.929205 0.870121
vt 0.928567 0.826619
f 104/275/104 106/276/106 107/277/107
vt -0.000000 0.000000
f 126/278/126 51/278/51 56/278/56
f 123/278/123 126/278/126 56/278/56
f 123/278/123 56/278/56 39/278/39
f 39/278/39 56/278/56 54/278/54
f 49/278/49 39/278/39 54/278/54
f 49/278/49 54/278/54 47/278/47
f 45/278/45 58/278/58 47/278/47
f 39/278/39 103/278/103 123/278/123
f 39/278/39 33/278/33 103/278/103
f 88/278/88 103/278/103 33/278/33
f 88/278/88 33/278/33 85/278/85
f 85/278/85 33/278/33 84/278/84
f 33/278/33 83/278/83 84/278/84
f 100/278/100 83/278/83 33/278/33
f 101/278/101 83/278/83 100/278/100
f 36/278/36 80/278/80 83/278/83
f 36/278/36 119/278/119 80/278/80
f 80/278/80 78/278/78 38/278/38
f 80/278/80 119/278/119 34/278/34
f 35/278/35 80/278/80 34/278/34
f 81/278/81 83/278/83 80/278/80
f 86/278/86 88/278/88 85/278/85
f 15/278/15 103/278/103 88/278/88
f 14/278/14 103/278/103 15/278/15
f 14/278/14 15/278/15 13/278/13
f 14/278/14 16/278/16 103/278/103
f 103/278/103 16/278/16 10/278/10
f 10/278/10 124/278/124 103/278/103
f 24/278/24 103/278/103 124/278/124
f 22/278/22 24/278/24 124/278/124
f 21/278/21 22/278/22 124/278/124
f 124/278/124 20/278/20 21/278/21
f 124/278/124 18/278/18 19/278/19
f 124/278/124 17/278/17 18/278/18
f 12/278/12 17/278/17 124/278/124
f 11/278/11 12/278/12 124/278/124
f 124/278/124 9/278/9 11/278/11
f 51/278/51 48/278/48 56/278/56
f 103/278/103 31/278/31 26/278/26
# 248 faces, 278 coords texture

# End of File
