####
#
# OBJ File Generated by Meshlab
#
####
# Object cake_36.obj
#
# Vertices: 20
# Faces: 36
#
####
mtllib ./cake_36.obj.mtl

vn 0.122100 -0.990883 0.056937
v 0.043469 -0.012685 0.047256
vn -0.129774 0.291780 -0.947641
v 0.005637 0.022472 -0.064483
vn 0.567225 -0.771117 0.289197
v 0.079577 0.014342 0.022444
vn -0.327634 -0.912337 0.245557
v 0.028154 0.016485 0.076064
vn -0.818215 -0.406124 0.406923
v -0.054274 0.010008 0.036615
vn -0.091349 -0.056416 0.994220
v 0.011633 0.021232 0.087795
vn 0.980179 0.151328 0.127865
v 0.093293 0.023115 0.018369
vn 0.103850 -0.714547 -0.691836
v 0.019625 -0.003381 -0.058270
vn 0.140509 -0.969556 0.200544
v 0.011509 -0.012784 0.007607
vn -0.779955 -0.621703 -0.071804
v -0.056993 0.024296 0.005084
vn -0.786164 -0.601457 -0.142113
v -0.054321 0.002032 -0.020265
vn -0.341261 -0.372702 -0.862922
v -0.042411 0.018437 -0.059886
vn -0.226170 -0.791630 -0.567599
v -0.019146 -0.008831 -0.047902
vn -0.156847 -0.772447 0.615407
v -0.010989 0.008014 0.067771
vn -0.792098 -0.583086 -0.180532
v -0.065181 0.030169 -0.048196
vn 0.207917 -0.969787 -0.127609
v 0.014041 -0.015448 -0.017415
vn -0.303721 -0.947701 0.098064
v -0.040234 -0.014873 0.029335
vn 0.626229 -0.090213 -0.774402
v 0.045983 0.019430 -0.069074
vn 0.500743 -0.858533 -0.110350
v 0.063956 -0.000213 -0.021993
vn -0.253953 0.964017 0.078607
v -0.074011 0.029277 0.015964
# 20 vertices, 0 vertices normals


usemtl material_0
vt 0.142040 0.169729
vt 0.067920 0.059782
vt 0.204788 0.126046
f 9/1/9 17/2/17 16/3/16
vt 0.002161 0.153265
vt 0.142428 0.181905
f 14/4/14 17/2/17 9/5/9
vt 0.063876 0.271991
vt 0.015581 0.214929
f 9/5/9 1/6/1 4/7/4
f 9/5/9 4/7/4 14/4/14
vt 0.164296 0.300584
f 3/8/3 1/6/1 9/5/9
vt 0.281494 0.051365
f 16/3/16 17/2/17 13/9/13
vt 0.097304 0.005494
vt 0.130922 0.004599
f 5/10/5 11/11/11 17/2/17
vt 0.198578 0.003442
f 17/2/17 12/12/12 13/9/13
vt 0.211150 0.151848
vt 0.316619 0.123971
f 16/13/16 13/9/13 8/14/8
vt 0.266457 0.260722
f 19/15/19 3/8/3 9/5/9
f 16/13/16 19/15/19 9/5/9
vt 0.155890 0.033339
f 17/2/17 11/16/11 12/12/12
vt 0.307897 0.198723
f 18/17/18 16/13/16 8/14/8
f 18/17/18 19/15/19 16/13/16
vt 0.309410 0.387817
vt 0.359996 0.441227
vt 0.238980 0.410910
f 20/18/20 18/19/18 2/20/2
vt 0.400964 0.559996
vt 0.418891 0.502016
vt 0.433152 0.524505
f 19/21/19 18/22/18 7/23/7
vt 0.124836 0.398057
vt 0.223228 0.358799
f 2/20/2 12/24/12 20/25/20
vt 0.308196 0.474472
f 8/26/8 2/20/2 18/19/18
vt 0.160917 0.432586
f 2/20/2 13/27/13 12/24/12
vt 0.080686 0.407712
vt 0.091371 0.386774
f 15/28/15 20/29/20 12/24/12
vt 0.038934 0.447490
f 15/28/15 12/24/12 11/30/11
vt 0.007865 0.503730
vt 0.047265 0.487819
f 15/31/15 11/30/11 10/32/10
vt 0.036653 0.539976
vt 0.001478 0.546544
f 15/31/15 10/33/10 20/34/20
vt 0.013881 0.600283
vt 0.046376 0.632904
f 20/35/20 10/33/10 5/36/5
vt 0.534394 0.196721
vt 0.658341 0.131278
vt 0.590384 0.195139
f 6/37/6 3/38/3 7/39/7
vt 0.526869 0.196036
vt 0.538730 0.110823
f 3/38/3 6/40/6 1/41/1
vt 0.735620 0.096663
vt 0.727920 0.125127
f 3/38/3 19/42/19 7/43/7
vt 0.464822 0.158562
f 1/41/1 6/40/6 4/44/4
vt 0.411012 0.114749
vt 0.407669 0.154265
f 14/45/14 4/44/4 6/46/6
vt 0.336305 0.024039
vt 0.367465 0.080354
vt 0.340010 0.089646
f 5/47/5 14/48/14 6/49/6
vt 0.328864 0.057908
f 20/50/20 5/47/5 6/49/6
vt 0.647284 0.396289
vt 0.562697 0.448615
vt 0.501438 0.380836
f 5/51/5 10/52/10 11/53/11
vt 0.697486 0.345166
vt 0.635511 0.344533
f 14/54/14 5/51/5 17/55/17
vt 0.731681 0.656840
vt 0.773556 0.611994
vt 0.784087 0.711259
f 2/56/2 8/57/8 13/58/13
vt -0.000000 0.000000
f 20/59/20 7/59/7 18/59/18
f 20/59/20 6/59/6 7/59/7
# 36 faces, 59 coords texture

# End of File
