####
#
# OBJ File Generated by Meshlab
#
####
# Object muffin_110.obj
#
# Vertices: 57
# Faces: 110
#
####
mtllib ./muffin_110.obj.mtl

vn -0.906847 0.407535 -0.107444
v -6.310183 10.555797 -2.784581 0.509804 0.337255 0.309804
vn -0.571917 0.820299 0.004589
v -4.685739 11.407567 -1.427871 0.447059 0.321569 0.329412
vn -0.488399 0.871532 -0.043558
v -2.307391 13.768094 0.772637 0.537255 0.356863 0.301961
vn -0.540388 0.687484 -0.485124
v -4.345950 12.130623 -4.600790 0.286275 0.164706 0.156863
vn -0.362956 0.875646 -0.318601
v -0.968494 12.964830 -2.101532 0.329412 0.203922 0.200000
vn -0.115882 0.989586 -0.085388
v -2.341264 12.942860 -2.905380 0.231373 0.109804 0.109804
vn -0.206298 0.702596 -0.681028
v 0.010208 13.262086 -3.150536 0.439216 0.309804 0.294118
vn -0.034749 0.829811 -0.556961
v 0.038521 11.973454 -3.646628 0.419608 0.321569 0.321569
vn 0.022628 0.921473 -0.387783
v -0.089423 11.606124 -6.060005 0.564706 0.419608 0.403922
vn -0.108186 0.426627 -0.897934
v -0.791637 10.805503 -7.010348 0.603922 0.419608 0.376471
vn 0.766402 0.551030 -0.330143
v 4.705461 12.699803 -0.856278 0.466667 0.294118 0.254902
vn 0.317984 0.821106 -0.473995
v 2.836240 12.418006 -2.972020 0.427451 0.274510 0.258824
vn 0.701666 0.709490 -0.065489
v 5.453048 11.208299 -0.036286 0.564706 0.431373 0.427451
vn 0.792297 0.609972 0.014117
v 6.750641 10.822627 0.697827 0.564706 0.384314 0.337255
vn 0.360153 0.643148 -0.675759
v 2.626513 11.384299 -6.304224 0.631373 0.439216 0.392157
vn 0.931863 0.354192 -0.078608
v 7.064207 9.772469 -0.714994 0.556863 0.364706 0.309804
vn 0.720432 0.682091 -0.125415
v 6.653900 11.257525 -1.818882 0.537255 0.329412 0.274510
vn 0.601448 -0.788145 -0.130717
v 4.855429 1.239414 -1.199982 0.576471 0.337255 0.258824
vn 0.742934 -0.455383 -0.490586
v 6.301402 7.165163 -4.392953 0.756863 0.474510 0.364706
vn 0.899307 -0.421202 0.117621
v 7.383060 6.967100 0.324733 0.666667 0.392157 0.282353
vn 0.719057 -0.534348 -0.444330
v 5.336942 6.694956 -4.030339 0.458824 0.247059 0.184314
vn 0.691777 -0.722103 -0.003399
v 6.475536 6.646480 0.495762 0.466667 0.227451 0.156863
vn -0.737133 0.675740 -0.003164
v -6.229900 11.676452 0.175421 0.549020 0.337255 0.286275
vn -0.460705 0.630334 0.624844
v -3.846692 11.079708 4.728879 0.482353 0.321569 0.309804
vn -0.530346 0.629562 0.567790
v -1.714472 10.930817 4.449254 0.611765 0.447059 0.349020
vn -0.572849 0.613923 0.543086
v -2.485314 10.374031 5.618564 0.521569 0.309804 0.282353
vn -0.317018 -0.282503 0.905368
v -2.166969 7.482130 6.564136 0.576471 0.384314 0.349020
vn -0.447888 0.887094 0.111626
v -3.775863 11.805645 -0.031428 0.439216 0.286275 0.266667
vn 0.944130 -0.291550 0.153680
v 6.035943 3.787275 0.984657 0.501961 0.258824 0.184314
vn 0.432527 -0.551050 0.713628
v 3.268652 1.510104 3.833554 0.466667 0.239216 0.164706
vn 0.639658 -0.613568 0.463004
v 5.044002 6.314166 3.755688 0.537255 0.286275 0.192157
vn -0.734813 -0.131366 0.665426
v -4.499507 7.388944 4.693530 0.584314 0.356863 0.286275
vn -0.568072 -0.568384 0.595175
v -3.869241 6.552060 4.038229 0.686275 0.509804 0.427451
vn -0.635525 -0.528866 0.562502
v -3.766688 1.418753 2.227295 0.509804 0.258824 0.184314
vn -0.996536 -0.052635 -0.064383
v -6.766857 7.513833 -1.143097 0.447059 0.239216 0.156863
vn -0.271926 -0.499803 0.822346
v -1.784577 6.564723 5.593270 0.447059 0.200000 0.109804
vn -0.052658 -0.921788 0.384101
v 0.328802 1.373210 4.274142 0.474510 0.258824 0.184314
vn -0.902121 -0.304674 0.305536
v -5.969953 6.964095 1.598208 0.321569 0.129412 0.094118
vn -0.540698 -0.837178 -0.082329
v -4.272895 1.336627 -1.091443 0.564706 0.337255 0.247059
vn -0.794777 -0.335021 -0.506053
v -5.495183 7.017980 -4.247565 0.521569 0.282353 0.219608
vn 0.124703 -0.517715 0.846416
v 1.353907 6.792336 6.386245 0.600000 0.384314 0.309804
vn -0.512124 -0.190384 -0.837546
v -3.673427 7.606795 -6.682257 0.631373 0.364706 0.266667
vn -0.072250 -0.501000 -0.862426
v -0.731526 7.436039 -7.420359 0.647059 0.384314 0.286275
vn -0.436740 0.671217 0.598937
v -1.504906 12.512292 4.407469 0.549020 0.403922 0.376471
vn -0.290422 -0.535764 -0.792851
v -1.380334 1.272382 -4.976432 0.486275 0.227451 0.149020
vn -0.280876 -0.594975 -0.753069
v -3.170076 6.477186 -5.682398 0.458824 0.247059 0.176471
vn 0.217751 -0.633083 -0.742826
v 2.754219 6.795350 -6.046866 0.466667 0.231373 0.137255
vn 0.298587 -0.229122 -0.926471
v 2.676848 7.711114 -7.283331 0.764706 0.647059 0.592157
vn -0.206752 0.525820 0.825086
v 0.620094 11.011020 6.153471 0.564706 0.419608 0.392157
vn 0.162233 0.985526 -0.049182
v 2.424347 14.359821 -0.658116 0.682353 0.529412 0.447059
vn 0.573675 -0.489251 0.656909
v 5.096353 6.878777 5.291313 0.431373 0.247059 0.192157
vn 0.171842 0.070978 0.982564
v 2.966118 9.722608 6.825037 0.619608 0.431373 0.364706
vn 0.708541 0.687951 0.157138
v 5.199356 12.080314 2.700343 0.509804 0.364706 0.329412
vn 0.826943 0.486021 0.282752
v 6.255365 10.337148 3.506148 0.509804 0.329412 0.294118
vn 0.448791 0.564695 0.692608
v 4.094313 11.027834 5.953971 0.549020 0.411765 0.384314
vn 0.858406 -0.046242 0.510883
v 6.602177 7.976916 3.945127 0.556863 0.356863 0.309804
vn 0.291273 -0.827558 -0.479904
v 1.961463 1.338299 -4.546153 0.403922 0.164706 0.101961
# 57 vertices, 0 vertices normals


usemtl material_0
vt 0.343364 0.372531
vt 0.304946 0.430161
vt 0.376306 0.380613
f 33/1/33 27/2/27 32/3/32
vt 0.301967 0.406857
f 33/1/33 36/4/36 27/2/27
vt 0.266937 0.417940
vt 0.200010 0.434764
f 27/2/27 36/5/36 41/6/41
vt 0.586023 0.721915
vt 0.436218 0.585808
vt 0.500055 0.734963
f 30/7/30 36/8/36 37/9/37
vt 0.688637 0.659215
vt 0.686236 0.807718
vt 0.798257 0.705597
f 35/10/35 38/11/38 23/12/23
vt 0.527966 0.249794
vt 0.506642 0.185016
vt 0.462140 0.245395
f 28/13/28 2/14/2 23/15/23
vt 0.773700 0.601300
vt 0.673261 0.566432
f 1/16/1 40/17/40 35/10/35
vt 0.805798 0.567392
f 1/16/1 4/18/4 40/17/40
vt 0.770702 0.612348
vt 0.744213 0.647654
vt 0.774565 0.635929
f 1/19/1 35/20/35 2/21/2
vt 0.442164 0.070674
vt 0.454391 0.070796
vt 0.450303 0.060653
f 1/22/1 2/23/2 4/24/4
vt 0.486144 0.151110
vt 0.568786 0.135366
vt 0.524942 0.075200
f 2/25/2 6/26/6 4/27/4
vt 0.867085 0.035436
vt 0.889980 0.066650
vt 0.896278 0.014296
f 2/28/2 35/29/35 23/30/23
vt 0.749143 0.523561
f 42/31/42 40/17/40 4/18/4
vt 0.630853 0.743646
vt 0.608464 0.791641
vt 0.654841 0.786187
f 5/32/5 28/33/28 3/34/3
f 28/13/28 6/26/6 2/14/2
vt 0.620317 0.887747
f 3/34/3 28/33/28 44/35/44
vt 0.548348 0.182123
vt 0.558653 0.190638
f 6/26/6 28/36/28 5/37/5
vt 0.194263 0.593649
vt 0.282456 0.682293
vt 0.287214 0.552815
f 10/38/10 42/39/42 4/40/4
vt 0.601453 0.008419
vt 0.639194 0.031113
f 10/41/10 4/27/4 9/42/9
vt 0.623986 0.168179
vt 0.723704 0.197207
vt 0.651192 0.128410
f 5/43/5 50/44/50 7/45/7
f 4/27/4 6/26/6 9/42/9
vt 0.721839 0.206526
vt 0.596337 0.254714
vt 0.607132 0.355707
f 50/46/50 3/47/3 44/48/44
vt 0.193014 0.689842
f 43/49/43 42/39/42 10/38/10
vt 0.652338 0.107904
f 9/42/9 6/26/6 8/50/8
vt 0.635530 0.194530
f 50/44/50 5/51/5 3/47/3
vt 0.618545 0.142128
vt 0.633493 0.115536
f 6/26/6 5/52/5 8/53/8
vt 0.773361 0.862488
vt 0.775800 0.898996
vt 0.793067 0.886769
f 7/54/7 8/55/8 5/56/5
vt 0.090867 0.680804
f 10/38/10 48/57/48 43/49/43
vt 0.682031 0.132420
vt 0.728068 0.146315
f 7/58/7 50/44/50 12/59/12
vt 0.722157 0.120520
f 12/60/12 9/42/9 8/50/8
vt 0.729756 0.039754
vt 0.672842 0.027354
f 9/42/9 15/61/15 10/62/10
f 15/61/15 9/42/9 12/60/12
vt 0.706335 0.886525
f 7/54/7 12/63/12 8/55/8
vt 0.966908 0.050858
vt 0.958679 0.070862
vt 0.970410 0.056307
f 53/64/53 55/65/55 54/66/54
vt 0.801054 0.309716
vt 0.799463 0.236981
vt 0.767241 0.217226
f 53/67/53 11/68/11 50/69/50
vt 0.418698 0.039899
vt 0.410328 0.024848
vt 0.405872 0.038796
f 13/70/13 12/71/12 11/72/11
vt 0.771420 0.176302
f 12/59/12 50/44/50 11/73/11
vt 0.852118 0.563663
vt 0.852274 0.465213
vt 0.832719 0.548095
f 54/74/54 13/75/13 53/76/53
vt 0.076371 0.582940
f 15/77/15 48/57/48 10/38/10
vt 0.823529 0.237326
vt 0.842019 0.310216
vt 0.850226 0.244974
f 13/78/13 54/79/54 14/80/14
vt 0.868861 0.439607
vt 0.872744 0.445397
vt 0.889966 0.445132
f 17/81/17 13/82/13 16/83/16
vt 0.807522 0.456982
vt 0.827680 0.524181
f 13/75/13 11/84/11 53/85/53
vt 0.835430 0.133165
vt 0.820970 0.208919
f 17/86/17 12/60/12 13/87/13
vt 0.542860 0.026536
vt 0.549454 0.014420
vt 0.529894 0.015967
f 14/88/14 16/89/16 13/90/13
vt 0.014991 0.683160
f 15/77/15 19/91/19 48/57/48
vt 0.898003 0.437997
vt 0.877419 0.489704
vt 0.985385 0.479845
f 16/92/16 14/93/14 20/94/20
f 15/61/15 12/60/12 17/86/17
vt 0.886849 0.575723
f 54/95/54 20/94/20 14/93/14
vt 0.956423 0.590156
f 56/96/56 20/94/20 54/95/54
vt 0.859789 0.314459
vt 0.854636 0.392011
vt 0.979048 0.331051
f 15/97/15 17/98/17 19/99/19
f 16/92/16 20/94/20 19/99/19
f 16/92/16 19/99/19 17/98/17
vt 0.385567 0.910033
vt 0.456227 0.972372
vt 0.463113 0.829878
f 29/100/29 30/101/30 18/102/18
vt 0.022499 0.800369
vt 0.078746 0.885251
vt 0.074009 0.720050
f 21/103/21 57/104/57 47/105/47
vt 0.297445 0.876545
vt 0.316648 0.984528
f 22/106/22 31/107/31 29/100/29
vt 0.325698 0.748657
f 29/100/29 18/102/18 21/108/21
vt 0.058815 0.340834
vt 0.012490 0.304575
vt 0.091532 0.412812
f 31/109/31 20/110/20 51/111/51
vt 0.042815 0.095031
vt 0.063905 0.114786
vt 0.156763 0.045479
f 19/112/19 21/113/21 47/114/47
vt 0.159128 0.015827
f 48/115/48 19/112/19 47/114/47
vt 0.023990 0.240639
f 20/110/20 31/109/31 22/116/22
f 19/112/19 22/116/22 21/113/21
vt 0.004672 0.223790
f 20/117/20 22/116/22 19/112/19
f 21/108/21 22/106/22 29/100/29
vt 0.342547 0.436536
vt 0.336398 0.513735
vt 0.378364 0.454834
f 24/118/24 32/119/32 25/120/25
vt 0.932877 0.035075
vt 0.938378 0.020679
vt 0.923303 0.034994
f 26/121/26 32/122/32 27/123/27
vt 0.487680 0.549622
vt 0.558644 0.464943
vt 0.395348 0.534638
f 41/124/41 52/125/52 27/126/27
vt 0.017324 0.919547
vt 0.095796 0.926347
vt 0.028157 0.892328
f 26/127/26 49/128/49 25/129/25
vt 0.457325 0.430302
vt 0.395357 0.455938
f 49/130/49 26/131/26 27/126/27
vt 0.517246 0.358057
f 23/15/23 24/132/24 28/13/28
vt 0.594240 0.868359
vt 0.584105 0.909226
f 28/133/28 25/134/25 44/35/44
vt 0.778690 0.840954
f 24/135/24 23/12/23 38/11/38
vt 0.459644 0.384965
vt 0.426025 0.417875
vt 0.471802 0.417081
f 44/136/44 25/137/25 49/138/49
vt 0.960923 0.028395
vt 0.964252 0.011120
vt 0.946033 0.015912
f 26/139/26 25/140/25 32/141/32
vt 0.567026 0.359883
vt 0.557681 0.314808
f 25/142/25 28/143/28 24/132/24
vt 0.724765 0.845787
f 38/11/38 32/144/32 24/135/24
f 49/130/49 27/126/27 52/125/52
vt 0.602462 0.540189
f 52/125/52 41/124/41 51/145/51
vt 0.589350 0.574555
f 41/146/41 36/8/36 30/7/30
vt 0.062534 0.004469
vt 0.060246 0.009974
vt 0.070064 0.005154
f 29/147/29 31/148/31 30/149/30
f 31/109/31 51/111/51 41/6/41
vt 0.642049 0.589466
f 30/7/30 31/150/31 41/146/41
vt 0.993218 0.594751
f 56/96/56 51/151/51 20/94/20
vt 0.397490 0.120171
vt 0.418829 0.259991
vt 0.437125 0.188005
f 40/152/40 38/153/38 35/154/35
vt 0.981903 0.842169
vt 0.816589 0.894171
vt 0.962605 0.926256
f 38/155/38 34/156/34 33/157/33
f 32/3/32 38/153/38 33/1/33
vt 0.815021 0.794517
f 39/158/39 34/156/34 38/155/38
vt 0.370754 0.678101
vt 0.402488 0.734467
f 36/8/36 33/159/33 34/160/34
vt 0.324756 0.026954
vt 0.328965 0.058069
f 40/152/40 42/161/42 46/162/46
vt 0.957672 0.704740
f 40/163/40 39/158/39 38/155/38
vt 0.268177 0.796824
vt 0.234790 0.726960
vt 0.204148 0.883812
f 40/164/40 46/165/46 45/166/45
vt 0.815110 0.709806
vt 0.814794 0.737969
f 45/167/45 39/168/39 40/163/40
vt 0.164991 0.708645
f 47/105/47 46/165/46 43/169/43
vt 0.252650 0.009203
f 46/162/46 42/161/42 43/170/43
f 46/165/46 47/105/47 45/166/45
f 43/170/43 48/115/48 47/114/47
f 45/166/45 47/105/47 57/104/57
vt 0.915430 0.616894
f 54/95/54 55/171/55 56/96/56
vt 0.752726 0.393759
f 44/48/44 55/172/55 50/46/50
vt 0.570111 0.410731
f 55/173/55 49/138/49 52/125/52
vt 0.629262 0.465904
vt 0.647774 0.523913
f 55/174/55 51/145/51 56/175/56
vt 0.760418 0.400151
f 55/176/55 53/67/53 50/46/50
vt 0.716223 0.404735
f 55/172/55 44/48/44 49/177/49
vt 0.922673 0.659265
vt 0.887956 0.634147
vt 0.915882 0.668792
f 51/178/51 55/179/55 52/180/52
vt 0.540245 0.002582
vt 0.548401 0.001355
vt 0.536133 0.002492
f 36/181/36 34/182/34 37/183/37
vt 0.042975 0.884365
f 21/103/21 18/184/18 57/104/57
vt 0.384197 0.061240
vt 0.385172 0.061514
vt 0.383834 0.059909
f 30/185/30 37/186/37 18/187/18
vt 0.385621 0.058847
vt 0.384671 0.058903
vt 0.386489 0.059962
f 45/188/45 57/189/57 39/190/39
vt 0.386307 0.060915
f 34/191/34 39/190/39 37/186/37
f 18/187/18 37/186/37 57/189/57
f 37/186/37 39/190/39 57/189/57
# 110 faces, 191 coords texture

# End of File
