####
#
# OBJ File Generated by Meshlab
#
####
# Object muffin_74.obj
#
# Vertices: 39
# Faces: 74
#
####
mtllib ./muffin_74.obj.mtl

vn -0.905786 0.406540 -0.119486
v -6.310183 10.555797 -2.784581 0.509804 0.337255 0.309804
vn -0.470312 0.881601 -0.039835
v -2.307391 13.768094 0.772637 0.537255 0.356863 0.301961
vn -0.534343 0.678340 -0.504314
v -3.976603 12.434575 -4.749867 0.231373 0.109804 0.109804
vn -0.148736 0.920795 -0.360574
v -0.774352 12.950264 -2.324578 0.419608 0.321569 0.321569
vn -0.004552 0.626535 -0.779380
v -0.574814 11.081618 -6.931141 0.603922 0.419608 0.376471
vn 0.245149 0.884887 -0.396077
v 2.836240 12.418006 -2.972020 0.427451 0.274510 0.258824
vn 0.560702 0.816253 -0.139083
v 4.841487 12.077404 -0.848102 0.564706 0.431373 0.427451
vn 0.457271 0.529600 -0.714441
v 2.626513 11.384299 -6.304224 0.631373 0.439216 0.392157
vn 0.770233 0.591559 -0.238327
v 6.719181 11.086522 -1.651835 0.537255 0.329412 0.274510
vn 0.796208 -0.146638 -0.586985
v 5.723881 7.055175 -4.265658 0.458824 0.247059 0.184314
vn 0.971143 -0.224874 0.079449
v 7.261504 6.950427 0.214807 0.466667 0.227451 0.156863
vn -0.822858 0.568136 -0.011222
v -6.229900 11.676452 0.175421 0.549020 0.337255 0.286275
vn -0.453774 0.641917 0.618087
v -3.846692 11.079708 4.728879 0.482353 0.321569 0.309804
vn -0.499853 0.634844 0.589168
v -1.714472 10.930817 4.449254 0.611765 0.447059 0.349020
vn -0.555454 0.613023 0.561848
v -2.485314 10.374031 5.618564 0.521569 0.309804 0.282353
vn -0.328730 -0.257779 0.908563
v -2.166969 7.482130 6.564136 0.576471 0.384314 0.349020
vn -0.566583 0.820990 0.070421
v -3.920092 11.733238 -0.473137 0.439216 0.286275 0.266667
vn 0.704944 -0.709209 0.008741
v 5.209061 1.608121 -0.192518 0.501961 0.258824 0.184314
vn 0.358950 -0.537207 0.763259
v 3.268652 1.510104 3.833554 0.466667 0.239216 0.164706
vn 0.665512 -0.535093 0.520355
v 5.044002 6.314166 3.755688 0.537255 0.286275 0.192157
vn -0.718554 -0.157327 0.677442
v -4.499507 7.388944 4.693530 0.584314 0.356863 0.286275
vn -0.630831 -0.594182 0.498998
v -3.766688 1.418753 2.227295 0.509804 0.258824 0.184314
vn -0.987822 -0.055584 -0.145324
v -6.766857 7.513833 -1.143097 0.447059 0.239216 0.156863
vn -0.331508 -0.563838 0.756431
v -2.284614 6.721527 5.590463 0.447059 0.200000 0.109804
vn -0.035216 -0.927038 0.373311
v 0.328802 1.373210 4.274142 0.474510 0.258824 0.184314
vn -0.891824 -0.330412 0.308995
v -5.969953 6.964095 1.598208 0.321569 0.129412 0.094118
vn -0.540698 -0.837178 -0.082329
v -4.272895 1.336627 -1.091443 0.564706 0.337255 0.247059
vn -0.811294 -0.280985 -0.512689
v -5.495183 7.017980 -4.247565 0.521569 0.282353 0.219608
vn 0.158371 -0.463894 0.871619
v 1.353907 6.792336 6.386245 0.600000 0.384314 0.309804
vn -0.425130 0.680628 0.596665
v -1.504906 12.512292 4.407469 0.549020 0.403922 0.376471
vn -0.270863 -0.597315 -0.754883
v -1.380334 1.272382 -4.976432 0.486275 0.227451 0.149020
vn -0.345614 -0.068123 -0.935901
v -2.349684 7.292616 -7.039313 0.458824 0.247059 0.176471
vn 0.291257 -0.148961 -0.944976
v 2.743998 7.232774 -6.622841 0.764706 0.647059 0.592157
vn 0.274110 0.959635 -0.062964
v 2.424347 14.359821 -0.658116 0.682353 0.529412 0.447059
vn -0.024130 0.307360 0.951287
v 1.975314 10.626330 6.770995 0.619608 0.431373 0.364706
vn 0.803310 0.537478 0.256537
v 6.043291 10.820449 3.393633 0.509804 0.329412 0.294118
vn 0.423207 0.631537 0.649659
v 4.094313 11.027834 5.953971 0.549020 0.411765 0.384314
vn 0.658213 -0.302880 0.689216
v 5.994705 7.315145 4.888691 0.556863 0.356863 0.309804
vn 0.307710 -0.844677 -0.437991
v 1.961463 1.338299 -4.546153 0.403922 0.164706 0.101961
# 39 vertices, 0 vertices normals


usemtl material_0
vt 0.312002 0.402385
vt 0.304946 0.430161
vt 0.376306 0.380613
f 24/1/24 16/2/16 21/3/21
vt 0.266937 0.417940
vt 0.200010 0.434764
f 16/2/16 24/4/24 29/5/29
vt 0.586023 0.721915
vt 0.418260 0.601890
vt 0.500055 0.734963
f 19/6/19 24/7/24 25/8/25
vt 0.688637 0.659215
vt 0.686236 0.807718
vt 0.798257 0.705597
f 23/9/23 26/10/26 12/11/12
vt 0.773700 0.601300
vt 0.673261 0.566432
f 1/12/1 28/13/28 23/9/23
vt 0.805798 0.567392
f 1/12/1 3/14/3 28/13/28
vt 0.770702 0.612348
vt 0.744213 0.647654
vt 0.774565 0.635929
f 1/15/1 23/16/23 17/17/17
vt 0.442164 0.070674
vt 0.454391 0.070796
vt 0.450303 0.060653
f 1/18/1 17/19/17 3/20/3
vt 0.867085 0.035436
vt 0.889980 0.066650
vt 0.896278 0.014296
f 17/21/17 23/22/23 12/23/12
vt 0.749143 0.523561
f 32/24/32 28/13/28 3/14/3
vt 0.630853 0.743646
vt 0.608464 0.791641
vt 0.654841 0.786187
f 4/25/4 17/26/17 2/27/2
vt 0.620317 0.887747
f 2/27/2 17/26/17 30/28/30
vt 0.535310 0.078417
vt 0.548348 0.182123
vt 0.558653 0.190638
f 3/29/3 17/30/17 4/31/4
vt 0.194263 0.593649
vt 0.248603 0.686321
vt 0.287214 0.552815
f 5/32/5 32/33/32 3/34/3
vt 0.721839 0.206526
vt 0.596337 0.254714
vt 0.607132 0.355707
f 34/35/34 2/36/2 30/37/30
vt 0.643931 0.016472
vt 0.652338 0.107904
f 5/38/5 3/29/3 4/39/4
vt 0.723704 0.197207
vt 0.635530 0.194530
f 34/40/34 4/41/4 2/36/2
vt 0.090867 0.680804
f 5/32/5 33/42/33 32/33/32
vt 0.682031 0.132420
vt 0.728068 0.146315
f 4/43/4 34/40/34 6/44/6
vt 0.722157 0.120520
f 6/45/6 5/38/5 4/39/4
vt 0.729756 0.039754
f 8/46/8 5/38/5 6/45/6
vt 0.801054 0.309716
vt 0.799463 0.236981
vt 0.767241 0.217226
f 36/47/36 7/48/7 34/49/34
vt 0.771420 0.176302
f 6/44/6 34/40/34 7/50/7
vt 0.076371 0.582940
f 8/51/8 33/42/33 5/32/5
vt 0.823529 0.237326
vt 0.842019 0.310216
vt 0.850226 0.244974
f 7/52/7 36/53/36 9/54/9
vt 0.835430 0.133165
vt 0.820970 0.208919
f 9/55/9 6/45/6 7/56/7
vt 0.014991 0.683160
f 8/51/8 10/57/10 33/42/33
f 8/46/8 6/45/6 9/55/9
vt 0.886849 0.575723
vt 0.985385 0.479845
vt 0.863451 0.409074
f 36/58/36 11/59/11 9/60/9
vt 0.978294 0.599046
f 38/61/38 11/59/11 36/58/36
vt 0.859789 0.314459
vt 0.979048 0.331051
f 8/62/8 9/60/9 10/63/10
f 9/60/9 11/59/11 10/63/10
vt 0.022499 0.800369
vt 0.078746 0.885251
vt 0.074009 0.720050
f 10/64/10 39/65/39 33/66/33
vt 0.297445 0.876545
vt 0.316648 0.984528
vt 0.442590 0.864200
f 11/67/11 20/68/20 18/69/18
vt 0.058815 0.340834
vt 0.013670 0.271545
vt 0.091532 0.412812
f 20/70/20 11/71/11 38/72/38
vt 0.325698 0.748657
f 10/73/10 11/67/11 18/69/18
vt 0.342547 0.436536
vt 0.336398 0.513735
vt 0.378364 0.454834
f 13/74/13 21/75/21 14/76/14
vt 0.932877 0.035075
vt 0.938378 0.020679
vt 0.923303 0.034994
f 15/77/15 21/78/21 16/79/16
vt 0.487680 0.549622
vt 0.514090 0.437361
vt 0.395348 0.534638
f 29/80/29 35/81/35 16/82/16
vt 0.017324 0.919547
vt 0.095796 0.926347
vt 0.028157 0.892328
f 15/83/15 35/84/35 14/85/14
vt 0.505040 0.441515
vt 0.395357 0.455938
f 35/86/35 15/87/15 16/82/16
vt 0.462140 0.245395
vt 0.517246 0.358057
vt 0.520316 0.224045
f 12/88/12 13/89/13 17/90/17
vt 0.594240 0.868359
vt 0.584105 0.909226
f 17/91/17 14/92/14 30/28/30
vt 0.778690 0.840954
f 13/93/13 12/11/12 26/10/26
vt 0.459644 0.384965
vt 0.426025 0.417875
f 30/94/30 14/95/14 35/81/35
vt 0.960923 0.028395
vt 0.964252 0.011120
vt 0.946033 0.015912
f 15/96/15 14/97/14 21/98/21
vt 0.567026 0.359883
vt 0.557681 0.314808
f 14/99/14 17/100/17 13/89/13
vt 0.724765 0.845787
f 26/10/26 21/101/21 13/93/13
vt 0.617197 0.535140
f 35/81/35 29/80/29 38/102/38
vt 0.589350 0.574555
f 29/103/29 24/7/24 19/6/19
vt 0.062534 0.004469
vt 0.060246 0.009974
vt 0.070064 0.005154
f 18/104/18 20/105/20 19/106/19
f 20/70/20 38/72/38 29/5/29
vt 0.642049 0.589466
f 19/6/19 20/107/20 29/103/29
vt 0.397490 0.120171
vt 0.418829 0.259991
vt 0.437125 0.188005
f 28/108/28 26/109/26 23/110/23
vt 0.981903 0.842169
vt 0.816589 0.894171
vt 0.962605 0.926256
f 26/111/26 22/112/22 24/113/24
f 21/3/21 26/109/26 24/1/24
vt 0.815021 0.794517
f 27/114/27 22/112/22 26/111/26
vt 0.957672 0.704740
f 28/115/28 27/114/27 26/111/26
vt 0.268177 0.796824
vt 0.206066 0.713985
vt 0.204148 0.883812
f 28/116/28 32/117/32 31/118/31
vt 0.815110 0.709806
vt 0.814794 0.737969
f 31/119/31 27/120/27 28/115/28
f 32/117/32 33/66/33 31/118/31
f 31/118/31 33/66/33 39/65/39
vt 0.915430 0.616894
f 36/58/36 37/121/37 38/61/38
vt 0.752726 0.393759
f 30/37/30 37/122/37 34/35/34
vt 0.760418 0.400151
f 37/123/37 36/47/36 34/35/34
vt 0.716223 0.404735
f 37/122/37 30/37/30 35/124/35
vt 0.922673 0.659265
vt 0.887956 0.634147
vt 0.915882 0.668792
f 38/125/38 37/126/37 35/127/35
vt 0.540245 0.002582
vt 0.548401 0.001355
vt 0.536133 0.002492
f 24/128/24 22/129/22 25/130/25
vt 0.042975 0.884365
f 10/64/10 18/131/18 39/65/39
vt 0.384197 0.061240
vt 0.385172 0.061514
vt 0.383834 0.059909
f 19/132/19 25/133/25 18/134/18
vt 0.385621 0.058847
vt 0.384671 0.058903
vt 0.386489 0.059962
f 31/135/31 39/136/39 27/137/27
vt 0.386307 0.060915
f 22/138/22 27/137/27 25/133/25
f 18/134/18 25/133/25 39/136/39
f 25/133/25 27/137/27 39/136/39
# 74 faces, 138 coords texture

# End of File
